<svg width="37" height="37" viewBox="0 0 37 37" fill="none" xmlns="http://www.w3.org/2000/svg">
<rect x="0.210227" y="0.210227" width="36.5795" height="36.5795" rx="18.2898" fill="#D9D9D9"/>
<rect x="0.210227" y="0.210227" width="36.5795" height="36.5795" rx="18.2898" stroke="#4632DA" stroke-width="0.420455"/>
<path d="M25.8945 10.5601H10.5612C9.50265 10.5601 8.64453 11.4182 8.64453 12.4767V23.9767C8.64453 25.0353 9.50265 25.8934 10.5612 25.8934H25.8945C26.9531 25.8934 27.8112 25.0353 27.8112 23.9767V12.4767C27.8112 11.4182 26.9531 10.5601 25.8945 10.5601Z" stroke="#4632DA" stroke-width="2" stroke-linecap="round" stroke-linejoin="round"/>
<path d="M27.8112 13.4351L19.2149 18.8976C18.9191 19.0829 18.577 19.1812 18.2279 19.1812C17.8787 19.1812 17.5366 19.0829 17.2408 18.8976L8.64453 13.4351" stroke="#4632DA" stroke-width="2" stroke-linecap="round" stroke-linejoin="round"/>
</svg>
