<svg width="37" height="37" viewBox="0 0 37 37" fill="none" xmlns="http://www.w3.org/2000/svg">
<rect x="0.210227" y="0.210227" width="36.5795" height="36.5795" rx="18.2898" fill="#D9D9D9"/>
<rect x="0.210227" y="0.210227" width="36.5795" height="36.5795" rx="18.2898" stroke="#4632DA" stroke-width="0.420455"/>
<path d="M14.3105 7.85932C13.9564 7.004 13.0229 6.54875 12.1308 6.79247L8.0841 7.89611C7.28396 8.11684 6.72754 8.84341 6.72754 9.67114C6.72754 21.0479 15.9522 30.2725 27.3289 30.2725C28.1566 30.2725 28.8832 29.7161 29.1039 28.9159L30.2076 24.8692C30.4513 23.9771 29.996 23.0436 29.1407 22.6895L24.7261 20.8501C23.9766 20.5374 23.1075 20.7536 22.597 21.3836L20.7392 23.6506C17.5019 22.1193 14.8807 19.4982 13.3494 16.2608L15.6165 14.4076C16.2465 13.8926 16.4626 13.0281 16.1499 12.2785L14.3105 7.86392V7.85932Z" fill="#4632DA"/>
</svg>
