<svg width="590" height="437" viewBox="0 0 590 437" fill="none" xmlns="http://www.w3.org/2000/svg">
<g clip-path="url(#clip0_443_992)">
<path d="M172.165 42.9675L178.401 52.7137L200.648 41.6847L212.086 38.1876C213.572 37.7332 214.913 36.8968 215.974 35.762C217.036 34.6271 217.781 33.2335 218.135 31.7205C218.489 30.2075 218.44 28.628 217.993 27.1399C217.545 25.6518 216.715 24.3072 215.585 23.2404C213.911 21.6597 211.687 20.7913 209.385 20.8185C207.082 20.8457 204.88 21.7664 203.244 23.3863L193.645 32.887L172.165 42.9675Z" fill="#A0616A"/>
<path d="M182.689 52.2596L174.375 39.2646L142.849 53.1343C140.585 54.1303 138.617 55.6943 137.136 57.6747C135.654 59.6552 134.709 61.9848 134.393 64.4377C134.003 67.4623 134.587 70.5325 136.059 73.2031C137.532 75.8737 139.816 78.006 142.582 79.2908L192.837 101.89C196.306 103.502 200.267 103.693 203.875 102.423C207.483 101.153 210.451 98.523 212.146 95.0942C213.057 93.2501 213.57 91.2348 213.651 89.1793C213.732 87.1239 213.379 85.0744 212.616 83.1643C211.852 81.2542 210.695 79.5262 209.22 78.0928C207.745 76.6595 205.984 75.5529 204.052 74.845L166.354 61.7951L182.689 52.2596Z" fill="#6C63FF"/>
<path d="M515.413 272.867C515.413 268.963 514.102 265.795 512.493 265.788H73.7245C72.1078 265.795 70.8042 268.963 70.7969 272.867V433.552C70.797 433.914 70.6622 434.264 70.4187 434.532C70.1751 434.801 69.8404 434.969 69.4797 435.004C68.3021 435.117 67.1244 435.222 65.9468 435.319C65.9176 435.319 65.8885 435.327 65.8593 435.327C65.2185 435.385 64.5776 435.429 63.9368 435.48H63.9295C63.5998 434.87 63.274 434.255 62.952 433.635C62.8431 433.426 62.7862 433.194 62.7861 432.959V263.683C62.7861 262.606 62.8298 261.521 62.9026 260.45C63.0066 258.98 63.1889 257.517 63.4488 256.066C64.6796 249.3 67.4615 244.72 70.6222 244.705H515.588C516.049 244.708 516.505 244.805 516.928 244.989C517.549 245.264 518.11 245.657 518.581 246.147C519.22 246.811 519.766 247.558 520.205 248.368C521.763 251.114 522.878 255.207 523.271 259.969C523.271 260.013 523.278 260.057 523.278 260.1C523.38 261.28 523.431 262.482 523.424 263.683L523.526 279.29L523.591 288.597L523.788 317.8L523.861 328.171L524.181 434.642C524.181 435.028 524.028 435.399 523.755 435.672C523.482 435.945 523.111 436.099 522.725 436.099H516.87C516.483 436.099 516.113 435.945 515.84 435.672C515.567 435.399 515.413 435.028 515.413 434.642V272.867Z" fill="#E6E6E6"/>
<path d="M73.9105 352.448L64.4701 350.753L66.5165 313.532L80.4503 316.034L73.9105 352.448Z" fill="#A0616A"/>
<path d="M72.4748 362.356L43.4435 357.143L43.5094 356.776C44.0476 353.779 45.7542 351.119 48.2537 349.38C50.7533 347.642 53.841 346.967 56.8379 347.505L56.8386 347.505L62.8639 344.434L72.0357 350.234L74.5699 350.689L72.4748 362.356Z" fill="#2F2E41"/>
<path d="M302.871 313.162H244.982C243.43 313.16 241.943 312.543 240.846 311.446C239.749 310.349 239.132 308.862 239.13 307.31V254.345C239.132 252.793 239.749 251.306 240.846 250.209C241.943 249.112 243.43 248.495 244.982 248.493H302.871C304.422 248.495 305.909 249.112 307.006 250.209C308.103 251.306 308.72 252.793 308.722 254.345V307.31C308.72 308.862 308.103 310.349 307.006 311.446C305.909 312.543 304.422 313.16 302.871 313.162Z" fill="#3F3D56"/>
<path d="M298.801 308.285H249.051C247.673 308.283 246.353 307.735 245.379 306.761C244.405 305.787 243.857 304.467 243.855 303.089V258.566C243.857 257.188 244.405 255.868 245.379 254.894C246.353 253.92 247.673 253.372 249.051 253.37H298.801C300.179 253.372 301.5 253.92 302.474 254.894C303.448 255.868 303.996 257.188 303.997 258.566V303.089C303.996 304.467 303.448 305.787 302.474 306.761C301.5 307.735 300.179 308.283 298.801 308.285Z" fill="white"/>
<path d="M293.838 266.332H254.014C253.669 266.332 253.339 266.196 253.095 265.952C252.852 265.709 252.715 265.378 252.715 265.034C252.715 264.689 252.852 264.359 253.095 264.115C253.339 263.872 253.669 263.735 254.014 263.735H293.838C294.183 263.735 294.513 263.872 294.757 264.115C295 264.359 295.137 264.689 295.137 265.034C295.137 265.378 295 265.709 294.757 265.952C294.513 266.196 294.183 266.332 293.838 266.332Z" fill="#6C63FF"/>
<path d="M293.838 271.465H254.014C253.669 271.465 253.339 271.328 253.095 271.084C252.852 270.841 252.715 270.511 252.715 270.166C252.715 269.822 252.852 269.491 253.095 269.248C253.339 269.004 253.669 268.867 254.014 268.867H293.838C294.183 268.867 294.513 269.004 294.757 269.248C295 269.491 295.137 269.822 295.137 270.166C295.137 270.511 295 270.841 294.757 271.084C294.513 271.328 294.183 271.465 293.838 271.465Z" fill="#6C63FF"/>
<path d="M271.277 276.597H254.014C253.669 276.597 253.339 276.46 253.095 276.216C252.852 275.973 252.715 275.642 252.715 275.298C252.715 274.953 252.852 274.623 253.095 274.379C253.339 274.136 253.669 273.999 254.014 273.999H271.277C271.621 273.999 271.952 274.136 272.195 274.379C272.439 274.623 272.576 274.953 272.576 275.298C272.576 275.642 272.439 275.973 272.195 276.216C271.952 276.46 271.621 276.597 271.277 276.597Z" fill="#6C63FF"/>
<path d="M293.838 287.346H254.014C253.669 287.346 253.339 287.209 253.095 286.965C252.852 286.722 252.715 286.391 252.715 286.047C252.715 285.702 252.852 285.372 253.095 285.128C253.339 284.885 253.669 284.748 254.014 284.748H293.838C294.183 284.748 294.513 284.885 294.757 285.128C295 285.372 295.137 285.702 295.137 286.047C295.137 286.391 295 286.722 294.757 286.965C294.513 287.209 294.183 287.346 293.838 287.346Z" fill="#E4E4E4"/>
<path d="M293.838 292.478H254.014C253.843 292.478 253.674 292.445 253.516 292.38C253.358 292.315 253.214 292.219 253.093 292.099C252.972 291.978 252.877 291.835 252.811 291.677C252.746 291.519 252.712 291.35 252.712 291.179C252.712 291.008 252.746 290.839 252.811 290.681C252.877 290.524 252.972 290.38 253.093 290.26C253.214 290.139 253.358 290.043 253.516 289.978C253.674 289.913 253.843 289.88 254.014 289.88H293.838C294.183 289.88 294.513 290.017 294.757 290.261C295 290.504 295.137 290.835 295.137 291.179C295.137 291.524 295 291.854 294.757 292.098C294.513 292.341 294.183 292.478 293.838 292.478Z" fill="#E4E4E4"/>
<path d="M271.277 297.61H254.014C253.669 297.61 253.339 297.474 253.095 297.23C252.852 296.986 252.715 296.656 252.715 296.312C252.715 295.967 252.852 295.637 253.095 295.393C253.339 295.15 253.669 295.013 254.014 295.013H271.277C271.621 295.013 271.952 295.15 272.195 295.393C272.439 295.637 272.576 295.967 272.576 296.312C272.576 296.656 272.439 296.986 272.195 297.23C271.952 297.474 271.621 297.61 271.277 297.61Z" fill="#E4E4E4"/>
<path d="M396.186 171.679H348.908C348.239 171.68 347.598 171.946 347.125 172.42C346.653 172.893 346.388 173.535 346.389 174.204V248.889H398.711V174.204C398.711 173.872 398.646 173.544 398.519 173.237C398.392 172.931 398.206 172.652 397.972 172.418C397.737 172.183 397.459 171.997 397.152 171.871C396.846 171.744 396.517 171.679 396.186 171.679ZM372.706 214.114C371.227 214.107 369.811 213.517 368.766 212.471C367.72 211.426 367.13 210.01 367.123 208.531V199.917C367.125 198.437 367.714 197.019 368.76 195.974C369.807 194.928 371.226 194.341 372.706 194.341C374.185 194.341 375.604 194.928 376.651 195.974C377.698 197.019 378.287 198.437 378.288 199.917V208.531C378.282 210.01 377.691 211.426 376.646 212.471C375.6 213.517 374.184 214.107 372.706 214.114Z" fill="#2F2E41"/>
<path d="M346.227 246.5V253.706C346.227 254.08 346.376 254.437 346.64 254.701C346.904 254.965 347.262 255.114 347.635 255.115H397.465C397.838 255.113 398.195 254.964 398.459 254.7C398.722 254.436 398.871 254.079 398.873 253.706V246.5H346.227Z" fill="#3F3D56"/>
<path d="M474.474 55.1235H272.379C270.642 55.1263 268.978 55.8173 267.75 57.045C266.522 58.2728 265.831 59.9372 265.829 61.6735V198.048C265.83 199.785 266.521 201.45 267.749 202.678C268.977 203.906 270.642 204.596 272.379 204.598H474.474C476.211 204.596 477.876 203.906 479.104 202.678C480.332 201.45 481.022 199.785 481.024 198.048V61.6735C481.021 59.9372 480.33 58.2728 479.102 57.045C477.875 55.8173 476.21 55.1263 474.474 55.1235Z" fill="#3F3D56"/>
<path d="M472.787 59.8545H274.067C273.138 59.8565 272.247 60.2272 271.59 60.8853C270.933 61.5433 270.564 62.435 270.564 63.3647V196.359C270.566 197.288 270.935 198.178 271.592 198.834C272.249 199.491 273.139 199.861 274.067 199.862H472.787C473.716 199.861 474.606 199.491 475.262 198.834C475.919 198.178 476.288 197.288 476.29 196.359V63.3647C476.29 62.435 475.921 61.5433 475.264 60.8853C474.608 60.2272 473.717 59.8565 472.787 59.8545Z" fill="white"/>
<path d="M434.08 257.622H315.852C315.529 257.622 315.209 257.55 314.917 257.411C314.625 257.271 314.367 257.069 314.163 256.817C313.959 256.566 313.814 256.273 313.738 255.958C313.662 255.643 313.657 255.316 313.724 254.999L315.558 246.286C315.663 245.799 315.931 245.362 316.318 245.048C316.705 244.734 317.188 244.561 317.686 244.56H432.246C432.744 244.561 433.227 244.734 433.614 245.048C434.001 245.362 434.269 245.799 434.373 246.286L436.208 254.999C436.275 255.316 436.27 255.643 436.194 255.958C436.118 256.273 435.972 256.566 435.769 256.817C435.565 257.069 435.307 257.271 435.015 257.411C434.723 257.55 434.403 257.622 434.08 257.622Z" fill="#2F2E41"/>
<path d="M321.812 246.128H318.881C318.685 246.128 318.526 246.288 318.526 246.484V247.958C318.526 248.154 318.685 248.313 318.881 248.313H321.812C322.008 248.313 322.167 248.154 322.167 247.958V246.484C322.167 246.288 322.008 246.128 321.812 246.128Z" fill="#3F3D56"/>
<path d="M329.094 246.128H326.164C325.968 246.128 325.809 246.288 325.809 246.484V247.958C325.809 248.154 325.968 248.313 326.164 248.313H329.094C329.291 248.313 329.45 248.154 329.45 247.958V246.484C329.45 246.288 329.291 246.128 329.094 246.128Z" fill="#3F3D56"/>
<path d="M336.377 246.128H333.447C333.25 246.128 333.091 246.288 333.091 246.484V247.958C333.091 248.154 333.25 248.313 333.447 248.313H336.377C336.573 248.313 336.732 248.154 336.732 247.958V246.484C336.732 246.288 336.573 246.128 336.377 246.128Z" fill="#3F3D56"/>
<path d="M343.659 246.128H340.729C340.533 246.128 340.374 246.288 340.374 246.484V247.958C340.374 248.154 340.533 248.313 340.729 248.313H343.659C343.856 248.313 344.015 248.154 344.015 247.958V246.484C344.015 246.288 343.856 246.128 343.659 246.128Z" fill="#3F3D56"/>
<path d="M350.942 246.128H348.012C347.815 246.128 347.656 246.288 347.656 246.484V247.958C347.656 248.154 347.815 248.313 348.012 248.313H350.942C351.138 248.313 351.298 248.154 351.298 247.958V246.484C351.298 246.288 351.138 246.128 350.942 246.128Z" fill="#3F3D56"/>
<path d="M358.225 246.128H355.294C355.098 246.128 354.939 246.288 354.939 246.484V247.958C354.939 248.154 355.098 248.313 355.294 248.313H358.225C358.421 248.313 358.58 248.154 358.58 247.958V246.484C358.58 246.288 358.421 246.128 358.225 246.128Z" fill="#3F3D56"/>
<path d="M365.507 246.128H362.577C362.381 246.128 362.221 246.288 362.221 246.484V247.958C362.221 248.154 362.381 248.313 362.577 248.313H365.507C365.704 248.313 365.863 248.154 365.863 247.958V246.484C365.863 246.288 365.704 246.128 365.507 246.128Z" fill="#3F3D56"/>
<path d="M372.79 246.128H369.86C369.663 246.128 369.504 246.288 369.504 246.484V247.958C369.504 248.154 369.663 248.313 369.86 248.313H372.79C372.986 248.313 373.145 248.154 373.145 247.958V246.484C373.145 246.288 372.986 246.128 372.79 246.128Z" fill="#3F3D56"/>
<path d="M380.072 246.128H377.142C376.946 246.128 376.787 246.288 376.787 246.484V247.958C376.787 248.154 376.946 248.313 377.142 248.313H380.072C380.269 248.313 380.428 248.154 380.428 247.958V246.484C380.428 246.288 380.269 246.128 380.072 246.128Z" fill="#3F3D56"/>
<path d="M387.355 246.128H384.425C384.228 246.128 384.069 246.288 384.069 246.484V247.958C384.069 248.154 384.228 248.313 384.425 248.313H387.355C387.551 248.313 387.711 248.154 387.711 247.958V246.484C387.711 246.288 387.551 246.128 387.355 246.128Z" fill="#3F3D56"/>
<path d="M394.638 246.128H391.707C391.511 246.128 391.352 246.288 391.352 246.484V247.958C391.352 248.154 391.511 248.313 391.707 248.313H394.638C394.834 248.313 394.993 248.154 394.993 247.958V246.484C394.993 246.288 394.834 246.128 394.638 246.128Z" fill="#3F3D56"/>
<path d="M401.92 246.128H398.99C398.794 246.128 398.634 246.288 398.634 246.484V247.958C398.634 248.154 398.794 248.313 398.99 248.313H401.92C402.116 248.313 402.276 248.154 402.276 247.958V246.484C402.276 246.288 402.116 246.128 401.92 246.128Z" fill="#3F3D56"/>
<path d="M409.203 246.128H406.272C406.076 246.128 405.917 246.288 405.917 246.484V247.958C405.917 248.154 406.076 248.313 406.272 248.313H409.203C409.399 248.313 409.558 248.154 409.558 247.958V246.484C409.558 246.288 409.399 246.128 409.203 246.128Z" fill="#3F3D56"/>
<path d="M416.485 246.128H413.555C413.359 246.128 413.2 246.288 413.2 246.484V247.958C413.2 248.154 413.359 248.313 413.555 248.313H416.485C416.682 248.313 416.841 248.154 416.841 247.958V246.484C416.841 246.288 416.682 246.128 416.485 246.128Z" fill="#3F3D56"/>
<path d="M423.768 246.128H420.838C420.641 246.128 420.482 246.288 420.482 246.484V247.958C420.482 248.154 420.641 248.313 420.838 248.313H423.768C423.964 248.313 424.123 248.154 424.123 247.958V246.484C424.123 246.288 423.964 246.128 423.768 246.128Z" fill="#3F3D56"/>
<path d="M431.05 246.128H428.12C427.924 246.128 427.765 246.288 427.765 246.484V247.958C427.765 248.154 427.924 248.313 428.12 248.313H431.05C431.247 248.313 431.406 248.154 431.406 247.958V246.484C431.406 246.288 431.247 246.128 431.05 246.128Z" fill="#3F3D56"/>
<path d="M321.726 249.77H318.795C318.599 249.77 318.44 249.929 318.44 250.126V251.599C318.44 251.796 318.599 251.955 318.795 251.955H321.726C321.922 251.955 322.081 251.796 322.081 251.599V250.126C322.081 249.929 321.922 249.77 321.726 249.77Z" fill="#3F3D56"/>
<path d="M329.008 249.77H326.078C325.882 249.77 325.723 249.929 325.723 250.126V251.599C325.723 251.796 325.882 251.955 326.078 251.955H329.008C329.205 251.955 329.364 251.796 329.364 251.599V250.126C329.364 249.929 329.205 249.77 329.008 249.77Z" fill="#3F3D56"/>
<path d="M336.291 249.77H333.361C333.164 249.77 333.005 249.929 333.005 250.126V251.599C333.005 251.796 333.164 251.955 333.361 251.955H336.291C336.487 251.955 336.646 251.796 336.646 251.599V250.126C336.646 249.929 336.487 249.77 336.291 249.77Z" fill="#3F3D56"/>
<path d="M343.573 249.77H340.643C340.447 249.77 340.288 249.929 340.288 250.126V251.599C340.288 251.796 340.447 251.955 340.643 251.955H343.573C343.77 251.955 343.929 251.796 343.929 251.599V250.126C343.929 249.929 343.77 249.77 343.573 249.77Z" fill="#3F3D56"/>
<path d="M350.856 249.77H347.926C347.729 249.77 347.57 249.929 347.57 250.126V251.599C347.57 251.796 347.729 251.955 347.926 251.955H350.856C351.052 251.955 351.212 251.796 351.212 251.599V250.126C351.212 249.929 351.052 249.77 350.856 249.77Z" fill="#3F3D56"/>
<path d="M358.139 249.77H355.208C355.012 249.77 354.853 249.929 354.853 250.126V251.599C354.853 251.796 355.012 251.955 355.208 251.955H358.139C358.335 251.955 358.494 251.796 358.494 251.599V250.126C358.494 249.929 358.335 249.77 358.139 249.77Z" fill="#3F3D56"/>
<path d="M365.421 249.77H362.491C362.295 249.77 362.135 249.929 362.135 250.126V251.599C362.135 251.796 362.295 251.955 362.491 251.955H365.421C365.618 251.955 365.777 251.796 365.777 251.599V250.126C365.777 249.929 365.618 249.77 365.421 249.77Z" fill="#3F3D56"/>
<path d="M372.704 249.77H369.774C369.577 249.77 369.418 249.929 369.418 250.126V251.599C369.418 251.796 369.577 251.955 369.774 251.955H372.704C372.9 251.955 373.059 251.796 373.059 251.599V250.126C373.059 249.929 372.9 249.77 372.704 249.77Z" fill="#3F3D56"/>
<path d="M379.986 249.77H377.056C376.86 249.77 376.701 249.929 376.701 250.126V251.599C376.701 251.796 376.86 251.955 377.056 251.955H379.986C380.183 251.955 380.342 251.796 380.342 251.599V250.126C380.342 249.929 380.183 249.77 379.986 249.77Z" fill="#3F3D56"/>
<path d="M387.269 249.77H384.339C384.142 249.77 383.983 249.929 383.983 250.126V251.599C383.983 251.796 384.142 251.955 384.339 251.955H387.269C387.465 251.955 387.624 251.796 387.624 251.599V250.126C387.624 249.929 387.465 249.77 387.269 249.77Z" fill="#3F3D56"/>
<path d="M394.551 249.77H391.621C391.425 249.77 391.266 249.929 391.266 250.126V251.599C391.266 251.796 391.425 251.955 391.621 251.955H394.551C394.748 251.955 394.907 251.796 394.907 251.599V250.126C394.907 249.929 394.748 249.77 394.551 249.77Z" fill="#3F3D56"/>
<path d="M401.834 249.77H398.904C398.707 249.77 398.548 249.929 398.548 250.126V251.599C398.548 251.796 398.707 251.955 398.904 251.955H401.834C402.03 251.955 402.19 251.796 402.19 251.599V250.126C402.19 249.929 402.03 249.77 401.834 249.77Z" fill="#3F3D56"/>
<path d="M409.117 249.77H406.186C405.99 249.77 405.831 249.929 405.831 250.126V251.599C405.831 251.796 405.99 251.955 406.186 251.955H409.117C409.313 251.955 409.472 251.796 409.472 251.599V250.126C409.472 249.929 409.313 249.77 409.117 249.77Z" fill="#3F3D56"/>
<path d="M416.399 249.77H413.469C413.273 249.77 413.113 249.929 413.113 250.126V251.599C413.113 251.796 413.273 251.955 413.469 251.955H416.399C416.596 251.955 416.755 251.796 416.755 251.599V250.126C416.755 249.929 416.596 249.77 416.399 249.77Z" fill="#3F3D56"/>
<path d="M423.682 249.77H420.752C420.555 249.77 420.396 249.929 420.396 250.126V251.599C420.396 251.796 420.555 251.955 420.752 251.955H423.682C423.878 251.955 424.037 251.796 424.037 251.599V250.126C424.037 249.929 423.878 249.77 423.682 249.77Z" fill="#3F3D56"/>
<path d="M430.964 249.77H428.034C427.838 249.77 427.679 249.929 427.679 250.126V251.599C427.679 251.796 427.838 251.955 428.034 251.955H430.964C431.161 251.955 431.32 251.796 431.32 251.599V250.126C431.32 249.929 431.161 249.77 430.964 249.77Z" fill="#3F3D56"/>
<path d="M382.171 254.14H353.752C353.556 254.14 353.396 254.299 353.396 254.495V255.969C353.396 256.165 353.556 256.324 353.752 256.324H382.171C382.367 256.324 382.527 256.165 382.527 255.969V254.495C382.527 254.299 382.367 254.14 382.171 254.14Z" fill="#3F3D56"/>
<path d="M459.101 423.836L453.486 414.813L452.365 419.969C452.168 420.872 451.971 421.79 451.789 422.7C450.195 421.338 448.498 420.078 446.837 418.87C441.74 415.17 436.644 411.466 431.551 407.756L433.146 417.005C434.129 422.7 435.156 428.512 437.588 433.719C437.858 434.309 438.149 434.891 438.462 435.459H462.16C462.351 434.932 462.482 434.385 462.553 433.828C462.559 433.792 462.561 433.755 462.56 433.719C462.932 430.187 460.98 426.859 459.101 423.836Z" fill="#F0F0F0"/>
<path d="M138.668 423.836L133.053 414.813L131.931 419.969C131.734 420.872 131.538 421.79 131.356 422.7C129.761 421.338 128.064 420.078 126.404 418.87C121.306 415.17 116.211 411.466 111.117 407.756L112.712 417.005C113.696 422.7 114.722 428.512 117.155 433.719C117.424 434.309 117.716 434.891 118.029 435.459H141.726C141.917 434.932 142.049 434.385 142.12 433.828C142.126 433.792 142.128 433.755 142.127 433.719C142.498 430.187 140.546 426.859 138.668 423.836Z" fill="#F0F0F0"/>
<path d="M589.125 436.446L388.308 436.67C388.078 436.67 387.858 436.579 387.695 436.416C387.532 436.253 387.441 436.033 387.441 435.803C387.441 435.573 387.532 435.352 387.695 435.19C387.858 435.027 388.078 434.936 388.308 434.936L589.125 434.712C589.355 434.712 589.576 434.803 589.738 434.966C589.901 435.129 589.992 435.349 589.992 435.579C589.992 435.809 589.901 436.03 589.738 436.192C589.576 436.355 589.355 436.446 589.125 436.446Z" fill="#CACACA"/>
<path d="M462.798 78.1786H276.856C276.663 78.1743 276.479 78.0945 276.344 77.9563C276.209 77.8181 276.133 77.6325 276.133 77.4391C276.133 77.2458 276.209 77.0602 276.344 76.922C276.479 76.7838 276.663 76.704 276.856 76.6997H462.798C462.991 76.704 463.175 76.7838 463.31 76.922C463.445 77.0602 463.521 77.2458 463.521 77.4391C463.521 77.6325 463.445 77.8181 463.31 77.9563C463.175 78.0945 462.991 78.1743 462.798 78.1786Z" fill="#CACACA"/>
<path d="M289.514 72.924C291.907 72.924 293.847 70.9406 293.847 68.494C293.847 66.0474 291.907 64.064 289.514 64.064C287.12 64.064 285.18 66.0474 285.18 68.494C285.18 70.9406 287.12 72.924 289.514 72.924Z" fill="#3F3D56"/>
<path d="M304.484 72.924C306.877 72.924 308.817 70.9406 308.817 68.494C308.817 66.0474 306.877 64.064 304.484 64.064C302.09 64.064 300.15 66.0474 300.15 68.494C300.15 70.9406 302.09 72.924 304.484 72.924Z" fill="#3F3D56"/>
<path d="M319.454 72.924C321.847 72.924 323.787 70.9406 323.787 68.494C323.787 66.0474 321.847 64.064 319.454 64.064C317.06 64.064 315.12 66.0474 315.12 68.494C315.12 70.9406 317.06 72.924 319.454 72.924Z" fill="#3F3D56"/>
<path d="M453.784 65.1621H443.15C442.94 65.1663 442.739 65.253 442.591 65.4035C442.444 65.5541 442.361 65.7565 442.361 65.9673C442.361 66.1781 442.444 66.3805 442.591 66.531C442.739 66.6816 442.94 66.7683 443.15 66.7725H453.784C453.995 66.7683 454.196 66.6816 454.343 66.531C454.491 66.3805 454.574 66.1781 454.574 65.9673C454.574 65.7565 454.491 65.5541 454.343 65.4035C454.196 65.253 453.995 65.1663 453.784 65.1621Z" fill="#3F3D56"/>
<path d="M453.784 68.1846H443.15C442.94 68.1888 442.739 68.2755 442.591 68.426C442.444 68.5765 442.361 68.779 442.361 68.9898C442.361 69.2006 442.444 69.403 442.591 69.5535C442.739 69.7041 442.94 69.7907 443.15 69.7949H453.784C453.995 69.7907 454.196 69.7041 454.343 69.5535C454.491 69.403 454.574 69.2006 454.574 68.9898C454.574 68.779 454.491 68.5765 454.343 68.426C454.196 68.2755 453.995 68.1888 453.784 68.1846Z" fill="#3F3D56"/>
<path d="M453.784 71.2031H443.15C442.94 71.2073 442.739 71.294 442.591 71.4446C442.444 71.5951 442.361 71.7975 442.361 72.0083C442.361 72.2191 442.444 72.4215 442.591 72.5721C442.739 72.7226 442.94 72.8093 443.15 72.8135H453.784C453.995 72.8093 454.196 72.7226 454.343 72.5721C454.491 72.4215 454.574 72.2191 454.574 72.0083C454.574 71.7975 454.491 71.5951 454.343 71.4446C454.196 71.294 453.995 71.2073 453.784 71.2031Z" fill="#3F3D56"/>
<path d="M384.84 118.464H361.606C359.86 118.464 358.446 119.879 358.446 121.624C358.446 123.369 359.86 124.784 361.606 124.784H384.84C386.585 124.784 388 123.369 388 121.624C388 119.879 386.585 118.464 384.84 118.464Z" fill="#6C63FF"/>
<path d="M399.849 131.104H346.596C344.851 131.104 343.436 132.518 343.436 134.263C343.436 136.009 344.851 137.423 346.596 137.423H399.849C401.595 137.423 403.009 136.009 403.009 134.263C403.009 132.518 401.595 131.104 399.849 131.104Z" fill="#E6E6E6"/>
<path d="M399.849 143.743H346.596C344.851 143.743 343.436 145.158 343.436 146.903C343.436 148.648 344.851 150.063 346.596 150.063H399.849C401.595 150.063 403.009 148.648 403.009 146.903C403.009 145.158 401.595 143.743 399.849 143.743Z" fill="#E6E6E6"/>
<path d="M295.864 192.237C295.868 194.841 295.405 197.423 294.495 199.862H274.067C273.139 199.861 272.249 199.491 271.592 198.834C270.935 198.178 270.566 197.288 270.564 196.359V170.666C271.706 170.482 272.86 170.389 274.016 170.39C276.885 170.389 279.726 170.954 282.377 172.052C285.028 173.15 287.437 174.76 289.465 176.788C291.494 178.817 293.103 181.226 294.201 183.876C295.299 186.527 295.864 189.368 295.864 192.237Z" fill="#E6E6E6"/>
<path d="M255.559 212.551C255.254 221.399 236.435 245.271 226.538 248.694C224.856 249.277 223.873 249.597 223.873 249.597L220.428 248.556L178.714 235.935C171.409 240.232 149.62 242.417 131.741 243.509C117.511 244.376 105.749 244.55 105.749 244.55C101.551 276.478 93.2779 307.019 79.3209 335.626L62.571 332.713L78.3949 226.155C78.7366 223.853 79.747 221.703 81.3004 219.972C82.8539 218.24 84.8819 217.003 87.1325 216.414L200.962 186.639C200.962 186.639 207.24 185.503 220.479 191.89C242.276 202.406 255.778 206.113 255.559 212.551Z" fill="#2F2E41"/>
<path d="M216.418 413.615L207.911 418.047L186.769 387.345L199.324 380.804L216.418 413.615Z" fill="#A0616A"/>
<path d="M221.341 422.333L195.183 435.962L195.011 435.631C193.604 432.931 193.327 429.782 194.242 426.878C195.156 423.974 197.187 421.552 199.887 420.145L202.777 414.03L213.581 413.01L215.864 411.82L221.341 422.333Z" fill="#2F2E41"/>
<path d="M233.809 210.839C237.626 218.827 231.969 248.694 224.774 256.303L222.864 257.602L222.218 257.938C217.902 272.538 171.583 315.24 171.583 315.24C187.228 335.171 196.979 359.676 203.201 386.92L189.302 393.341L138.377 317.318C137.043 315.327 136.344 312.979 136.37 310.582C136.396 308.186 137.147 305.853 138.524 303.892L159.299 274.299L193.151 208.727C217.341 207.981 231.028 205.029 233.809 210.839Z" fill="#2F2E41"/>
<path d="M254.389 215.658C181.277 204.54 174.616 194.541 173.901 194.719L173.266 194.877L183.859 176.973L187.744 172.383L184.756 170.247L185.941 161.375C186.866 157.78 187.615 153.547 187.216 152.98C186.392 152.068 184.557 150.409 184.539 150.393L184.303 150.179L187.057 143.755L190.744 92.3881L200.252 73.4345L219.875 61.8013L237.171 62.0106L252.371 76.1092C258.824 79.2136 264.073 84.3603 267.304 90.7514C270.534 97.1425 271.565 104.421 270.238 111.458L262.517 152.239L259.677 173.259L264.311 177.893L261.428 180.777L259.713 190.596L261.469 201.718C262.842 211.822 256.739 212.425 256.288 212.551C256.261 212.559 254.935 216.029 254.879 216.029C254.738 216.029 254.727 215.71 254.389 215.658Z" fill="#6C63FF"/>
<path d="M250.551 256.204C251.386 255.389 252.032 254.4 252.443 253.308C252.854 252.216 253.021 251.047 252.932 249.883C252.843 248.719 252.5 247.589 251.927 246.573C251.353 245.556 250.564 244.677 249.615 243.999L257.635 216.786L243.535 221.092L238.081 246.273C237.046 247.944 236.661 249.936 236.997 251.872C237.333 253.808 238.368 255.553 239.905 256.777C241.442 258.001 243.374 258.619 245.337 258.514C247.299 258.408 249.154 257.586 250.551 256.204Z" fill="#A0616A"/>
<path d="M251.853 237.322L236.612 230.486L248.837 179.72L226.071 124.455C224.946 121.723 224.435 118.777 224.577 115.826C224.718 112.875 225.507 109.991 226.888 107.379C228.27 104.767 230.209 102.492 232.568 100.714C234.928 98.9358 237.65 97.6991 240.541 97.0913C245.765 95.9995 251.208 97.0244 255.677 99.9411C260.145 102.858 263.274 107.428 264.377 112.649L278.223 178.532L251.853 237.322Z" fill="#6C63FF"/>
<path d="M191.677 43.3999L197.248 20.2314C197.439 19.4389 197.937 18.7548 198.632 18.3291C199.328 17.9033 200.163 17.7708 200.956 17.9605L206.006 19.1746C206.798 19.3661 207.482 19.8641 207.908 20.5594C208.334 21.2546 208.466 22.0904 208.277 22.8833L202.706 46.0518C202.514 46.8442 202.016 47.5284 201.321 47.9541C200.626 48.3798 199.79 48.5124 198.997 48.3227L193.948 47.1085C193.155 46.9171 192.471 46.4191 192.045 45.7238C191.62 45.0285 191.487 44.1928 191.677 43.3999Z" fill="#3F3D56"/>
<path d="M201.263 19.2838C200.836 19.1816 200.385 19.253 200.011 19.4825C199.636 19.7119 199.368 20.0805 199.264 20.5076L193.694 43.6761C193.591 44.1033 193.663 44.5537 193.892 44.9284C194.122 45.303 194.49 45.5714 194.917 45.6746L199.967 46.8887C200.394 46.9909 200.844 46.9195 201.219 46.6901C201.594 46.4607 201.862 46.092 201.965 45.665L207.536 22.4965C207.638 22.0692 207.567 21.6188 207.337 21.2442C207.108 20.8695 206.739 20.6011 206.312 20.4979L201.263 19.2838Z" fill="#6C63FF"/>
<path d="M224.626 58.0105C238.283 58.0105 249.355 46.9385 249.355 33.2806C249.355 19.6227 238.283 8.55078 224.626 8.55078C210.968 8.55078 199.896 19.6227 199.896 33.2806C199.896 46.9385 210.968 58.0105 224.626 58.0105Z" fill="#A0616A"/>
<path d="M236.032 49.8159L236.923 44.807C237.47 41.4853 236.901 38.0759 235.305 35.1118C233.709 32.1477 231.176 29.796 228.102 28.4244L227.338 28.0549L227.967 27.7186C228.167 27.6115 228.324 27.4378 228.409 27.2276C228.495 27.0173 228.504 26.7838 228.435 26.5675C228.366 26.3512 228.224 26.1658 228.033 26.0434C227.842 25.921 227.614 25.8694 227.389 25.8976L226.674 25.9865C226.187 26.0461 225.693 25.9636 225.251 25.7488C224.81 25.5341 224.44 25.1963 224.187 24.7761C223.933 24.356 223.806 23.8714 223.821 23.3809C223.837 22.8903 223.994 22.4147 224.273 22.0113C221.804 23.0342 219.17 23.6006 216.499 23.6829C212.634 23.6538 209.275 21.7694 207.943 18.882C207.618 18.1641 207.419 17.3962 207.352 16.6112C203.269 18.2203 201.067 23.0435 201.044 23.094L199.837 25.788L200.354 22.8814C200.37 22.7929 201.95 13.9898 204.242 8.52816C206.706 2.65587 216.962 -0.439229 232.37 0.0504225C247.42 0.523361 250.759 17.6829 251.045 19.3432C255.321 23.4571 253.767 31.246 252.452 35.542C250.323 42.4992 246.12 49.4219 243.805 49.7864C243.597 49.8253 243.383 49.802 243.189 49.7195C242.995 49.6369 242.83 49.4987 242.714 49.3223C242.482 48.9538 242.175 48.6386 241.812 48.3978C241.449 48.1569 241.04 47.9959 240.61 47.9252C238.739 47.6592 236.808 49.1933 236.788 49.2086L236.032 49.8159Z" fill="#2F2E41"/>
<path d="M201.692 436.446L0.874738 436.67C0.645197 436.669 0.42529 436.578 0.263215 436.415C0.10114 436.253 0.0101204 436.032 0.0101204 435.803C0.0101204 435.573 0.10114 435.353 0.263215 435.191C0.42529 435.028 0.645197 434.936 0.874738 434.936L201.692 434.712C201.922 434.712 202.142 434.803 202.305 434.966C202.468 435.129 202.559 435.349 202.559 435.579C202.559 435.809 202.468 436.03 202.305 436.192C202.142 436.355 201.922 436.446 201.692 436.446Z" fill="#CACACA"/>
</g>
<defs>
<clipPath id="clip0_443_992">
<rect width="589.985" height="436.67" fill="white" transform="translate(0.00761604)"/>
</clipPath>
</defs>
</svg>
