<svg width="105" height="58" viewBox="0 0 105 58" fill="none" xmlns="http://www.w3.org/2000/svg">
<circle cx="28.9848" cy="28.9848" r="21.7386" stroke="white" stroke-width="14.4924"/>
<path d="M58.6204 56.2682C61.6056 56.9244 64.6713 55.153 65.6781 52.2907L69.0615 42.1551L63.9322 39.266C63.3431 38.9381 62.7025 38.7125 62.0378 38.5988C60.1994 38.2774 58.1881 38.7693 57.0364 40.2997C56.9618 40.394 56.8603 40.4636 56.7454 40.4993L54.1936 48.2206C52.9968 51.6247 55.0738 55.4902 58.6216 56.2694L58.6204 56.2682ZM64.1879 31.5825C66.937 30.4173 70.0111 30.0777 72.9623 30.4721L80.6373 7.49576C80.8904 6.72063 81.2467 5.9831 81.6966 5.30307C82.3625 4.33273 83.0662 3.70573 83.9842 3.26743C84.4761 3.02637 85.1603 2.9728 85.8859 3.0288C82.4758 1.59217 78.7149 1.037 75.1416 2.17048C72.0283 3.15862 69.3932 5.26826 67.7478 8.08989C67.3254 8.82038 66.9735 9.59105 66.6947 10.3885L57.9544 36.8384C58.2831 36.4013 58.6167 35.98 58.96 35.577C60.4076 33.875 62.0244 32.5005 64.1903 31.5825H64.1879Z" fill="white"/>
<path d="M103.799 47.0022C103.742 47.0643 103.691 47.1325 103.623 47.1775C102.756 47.7546 101.438 46.6175 100.667 46.1707C94.8215 42.7921 88.9934 39.3856 83.1117 36.0728C79.9255 34.2783 76.9451 32.3948 73.2988 31.7313C67.993 30.9107 62.7846 32.7175 59.9905 36.3723L59.1504 37.49C59.7355 37.3347 60.3384 37.2574 60.9437 37.2599C61.2725 37.2599 61.6 37.2855 61.925 37.3293C62.895 37.439 63.8327 37.7442 64.6814 38.2266L95.1514 55.3919C97.9699 56.9515 101.552 56.6666 103.47 53.8822L103.651 53.6034C104.135 52.8197 104.439 51.9381 104.54 51.0225C104.641 50.1068 104.537 49.1802 104.235 48.3098L103.802 47.0022H103.799ZM84.3694 4.67391C82.3909 5.63207 82.0087 7.68962 81.378 9.57916L80.0643 13.5116L87.9415 37.3329L102.829 45.9466C102.881 45.6715 102.924 45.1114 102.798 43.9767C102.791 43.9443 102.786 43.9113 102.784 43.8781C101.932 41.2898 91.7303 9.4988 90.7331 7.41812C90.251 6.41248 89.5546 5.4811 88.6062 4.89428C87.9726 4.51187 87.2543 4.29179 86.5153 4.25356C85.7762 4.21533 85.0391 4.36014 84.3694 4.67513V4.67391Z" fill="white"/>
</svg>
