<svg width="1440" height="401" viewBox="0 0 1440 401" fill="none" xmlns="http://www.w3.org/2000/svg">
<path opacity="0.33" d="M836.675 131.13C1717.79 -222.07 1973.61 267.13 2220.79 131.13C2595.44 -76.07 2880.65 161.53 2880.65 161.53V400.33H-1440.65V161.53C-1440.65 161.53 -1172.3 57.13 -1030.56 44.33C-888.82 31.13 -759.181 93.53 -703.004 132.73C-602.318 201.93 -340.015 365.53 -122.222 381.53C95.572 397.53 752.842 164.33 836.675 131.13Z" fill="white"/>
<path opacity="0.66" d="M-291.184 131.13C-94.5652 131.13 42.4199 223.93 266.695 287.53C390.285 322.33 916.187 327.93 1364.31 131.13C1812.42 -65.67 1760.57 268.73 2009.04 131.13C2380.68 -72.87 2880.65 241.13 2880.65 241.13V400.33H-1440.65V254.33C-1440.65 254.33 -1318.79 328.33 -1042.66 328.33C-620.468 327.93 -471.383 131.13 -291.184 131.13Z" fill="white"/>
<path d="M-429.898 284.73C434.362 514.73 719.568 22.73 1277.45 206.73C1834.9 393.13 1834.9 378.73 2082.07 317.93C2327.52 257.13 2308.94 220.73 2492.17 190.33C2757.06 145.53 2880.65 400.33 2880.65 400.33H-1440.65C-1440.65 400.33 -1397.87 236.73 -1079.39 207.93C-760.91 179.13 -704.301 212.33 -429.898 284.73Z" fill="white"/>
</svg>
