<svg width="49" height="49" viewBox="0 0 49 49" fill="none" xmlns="http://www.w3.org/2000/svg">
<path d="M9.66 14.3301C9.66 13.9323 9.81804 13.5507 10.0993 13.2694C10.3806 12.9881 10.7622 12.8301 11.16 12.8301H29.16C29.5578 12.8301 29.9394 12.9881 30.2207 13.2694C30.502 13.5507 30.66 13.9323 30.66 14.3301C30.66 14.7279 30.502 15.1094 30.2207 15.3907C29.9394 15.672 29.5578 15.8301 29.16 15.8301H11.16C10.7622 15.8301 10.3806 15.672 10.0993 15.3907C9.81804 15.1094 9.66 14.7279 9.66 14.3301ZM9.66 20.3301C9.66 19.9323 9.81804 19.5507 10.0993 19.2694C10.3806 18.9881 10.7622 18.8301 11.16 18.8301H29.16C29.5578 18.8301 29.9394 18.9881 30.2207 19.2694C30.502 19.5507 30.66 19.9323 30.66 20.3301C30.66 20.7279 30.502 21.1094 30.2207 21.3907C29.9394 21.672 29.5578 21.8301 29.16 21.8301H11.16C10.7622 21.8301 10.3806 21.672 10.0993 21.3907C9.81804 21.1094 9.66 20.7279 9.66 20.3301ZM9.66 26.3301C9.66 25.9323 9.81804 25.5507 10.0993 25.2694C10.3806 24.9881 10.7622 24.8301 11.16 24.8301H29.16C29.5578 24.8301 29.9394 24.9881 30.2207 25.2694C30.502 25.5507 30.66 25.9323 30.66 26.3301C30.66 26.7279 30.502 27.1094 30.2207 27.3907C29.9394 27.672 29.5578 27.8301 29.16 27.8301H11.16C10.7622 27.8301 10.3806 27.672 10.0993 27.3907C9.81804 27.1094 9.66 26.7279 9.66 26.3301ZM9.66 32.3301C9.66 31.9323 9.81804 31.5507 10.0993 31.2694C10.3806 30.9881 10.7622 30.8301 11.16 30.8301H29.16C29.5578 30.8301 29.9394 30.9881 30.2207 31.2694C30.502 31.5507 30.66 31.9323 30.66 32.3301C30.66 32.7279 30.502 33.1094 30.2207 33.3907C29.9394 33.672 29.5578 33.8301 29.16 33.8301H11.16C10.7622 33.8301 10.3806 33.672 10.0993 33.3907C9.81804 33.1094 9.66 32.7279 9.66 32.3301ZM9.66 38.3301C9.66 37.9323 9.81804 37.5507 10.0993 37.2694C10.3806 36.9881 10.7622 36.8301 11.16 36.8301H29.16C29.5578 36.8301 29.9394 36.9881 30.2207 37.2694C30.502 37.5507 30.66 37.9323 30.66 38.3301C30.66 38.7279 30.502 39.1094 30.2207 39.3907C29.9394 39.672 29.5578 39.8301 29.16 39.8301H11.16C10.7622 39.8301 10.3806 39.672 10.0993 39.3907C9.81804 39.1094 9.66 38.7279 9.66 38.3301ZM35.16 12.8301C34.7622 12.8301 34.3806 12.9881 34.0993 13.2694C33.818 13.5507 33.66 13.9323 33.66 14.3301C33.66 14.7279 33.818 15.1094 34.0993 15.3907C34.3806 15.672 34.7622 15.8301 35.16 15.8301H38.16C38.5578 15.8301 38.9394 15.672 39.2207 15.3907C39.502 15.1094 39.66 14.7279 39.66 14.3301C39.66 13.9323 39.502 13.5507 39.2207 13.2694C38.9394 12.9881 38.5578 12.8301 38.16 12.8301H35.16ZM35.16 18.8301C34.7622 18.8301 34.3806 18.9881 34.0993 19.2694C33.818 19.5507 33.66 19.9323 33.66 20.3301C33.66 20.7279 33.818 21.1094 34.0993 21.3907C34.3806 21.672 34.7622 21.8301 35.16 21.8301H38.16C38.5578 21.8301 38.9394 21.672 39.2207 21.3907C39.502 21.1094 39.66 20.7279 39.66 20.3301C39.66 19.9323 39.502 19.5507 39.2207 19.2694C38.9394 18.9881 38.5578 18.8301 38.16 18.8301H35.16ZM35.16 24.8301C34.7622 24.8301 34.3806 24.9881 34.0993 25.2694C33.818 25.5507 33.66 25.9323 33.66 26.3301C33.66 26.7279 33.818 27.1094 34.0993 27.3907C34.3806 27.672 34.7622 27.8301 35.16 27.8301H38.16C38.5578 27.8301 38.9394 27.672 39.2207 27.3907C39.502 27.1094 39.66 26.7279 39.66 26.3301C39.66 25.9323 39.502 25.5507 39.2207 25.2694C38.9394 24.9881 38.5578 24.8301 38.16 24.8301H35.16ZM35.16 30.8301C34.7622 30.8301 34.3806 30.9881 34.0993 31.2694C33.818 31.5507 33.66 31.9323 33.66 32.3301C33.66 32.7279 33.818 33.1094 34.0993 33.3907C34.3806 33.672 34.7622 33.8301 35.16 33.8301H38.16C38.5578 33.8301 38.9394 33.672 39.2207 33.3907C39.502 33.1094 39.66 32.7279 39.66 32.3301C39.66 31.9323 39.502 31.5507 39.2207 31.2694C38.9394 30.9881 38.5578 30.8301 38.16 30.8301H35.16ZM35.16 36.8301C34.7622 36.8301 34.3806 36.9881 34.0993 37.2694C33.818 37.5507 33.66 37.9323 33.66 38.3301C33.66 38.7279 33.818 39.1094 34.0993 39.3907C34.3806 39.672 34.7622 39.8301 35.16 39.8301H38.16C38.5578 39.8301 38.9394 39.672 39.2207 39.3907C39.502 39.1094 39.66 38.7279 39.66 38.3301C39.66 37.9323 39.502 37.5507 39.2207 37.2694C38.9394 36.9881 38.5578 36.8301 38.16 36.8301H35.16Z" fill="#6C63FF"/>
<path d="M7.722 2.76807C7.55393 2.59987 7.34828 2.47404 7.12201 2.40094C6.89574 2.32785 6.65534 2.3096 6.42063 2.34769C6.18592 2.38579 5.96363 2.47913 5.77209 2.62003C5.58055 2.76093 5.42525 2.94535 5.319 3.15807L3.819 6.15807C3.71446 6.36666 3.66002 6.59676 3.66 6.83007V45.8301H2.16C1.76218 45.8301 1.38065 45.9881 1.09934 46.2694C0.818039 46.5507 0.660004 46.9322 0.660004 47.3301C0.660004 47.7279 0.818039 48.1094 1.09934 48.3907C1.38065 48.672 1.76218 48.8301 2.16 48.8301H47.16C47.5578 48.8301 47.9394 48.672 48.2207 48.3907C48.502 48.1094 48.66 47.7279 48.66 47.3301C48.66 46.9322 48.502 46.5507 48.2207 46.2694C47.9394 45.9881 47.5578 45.8301 47.16 45.8301H45.66V6.83007C45.66 6.59676 45.6055 6.36666 45.501 6.15807L44.001 3.15807C43.8946 2.94589 43.7394 2.76198 43.5481 2.62146C43.3569 2.48093 43.1349 2.38781 42.9007 2.34974C42.6664 2.31167 42.4264 2.32974 42.2005 2.40246C41.9745 2.47519 41.7691 2.60049 41.601 2.76807L39.66 4.70907L37.722 2.76807C37.5827 2.62838 37.4171 2.51756 37.2349 2.44194C37.0527 2.36632 36.8573 2.32739 36.66 2.32739C36.4627 2.32739 36.2673 2.36632 36.0851 2.44194C35.9029 2.51756 35.7373 2.62838 35.598 2.76807L33.66 4.70907L31.722 2.76807C31.5827 2.62838 31.4171 2.51756 31.2349 2.44194C31.0527 2.36632 30.8573 2.32739 30.66 2.32739C30.4627 2.32739 30.2673 2.36632 30.0851 2.44194C29.9029 2.51756 29.7373 2.62838 29.598 2.76807L27.66 4.70907L25.722 2.76807C25.5827 2.62838 25.4171 2.51756 25.2349 2.44194C25.0527 2.36632 24.8573 2.32739 24.66 2.32739C24.4627 2.32739 24.2673 2.36632 24.0851 2.44194C23.9029 2.51756 23.7373 2.62838 23.598 2.76807L21.66 4.70907L19.722 2.76807C19.5827 2.62838 19.4171 2.51756 19.2349 2.44194C19.0527 2.36632 18.8573 2.32739 18.66 2.32739C18.4627 2.32739 18.2673 2.36632 18.0851 2.44194C17.9029 2.51756 17.7373 2.62838 17.598 2.76807L15.66 4.70907L13.722 2.76807C13.5827 2.62838 13.4171 2.51756 13.2349 2.44194C13.0527 2.36632 12.8573 2.32739 12.66 2.32739C12.4627 2.32739 12.2673 2.36632 12.0851 2.44194C11.9029 2.51756 11.7373 2.62838 11.598 2.76807L9.66 4.70907L7.722 2.76807ZM7.071 6.36207L8.601 7.89207C8.8823 8.17328 9.26376 8.33125 9.6615 8.33125C10.0592 8.33125 10.4407 8.17328 10.722 7.89207L12.66 5.95107L14.598 7.89207C14.7373 8.03176 14.9029 8.14259 15.0851 8.21821C15.2673 8.29383 15.4627 8.33276 15.66 8.33276C15.8573 8.33276 16.0527 8.29383 16.2349 8.21821C16.4171 8.14259 16.5827 8.03176 16.722 7.89207L18.66 5.95107L20.598 7.89207C20.7373 8.03176 20.9029 8.14259 21.0851 8.21821C21.2673 8.29383 21.4627 8.33276 21.66 8.33276C21.8573 8.33276 22.0527 8.29383 22.2349 8.21821C22.4171 8.14259 22.5827 8.03176 22.722 7.89207L24.66 5.95107L26.598 7.89207C26.7373 8.03176 26.9029 8.14259 27.0851 8.21821C27.2673 8.29383 27.4627 8.33276 27.66 8.33276C27.8573 8.33276 28.0527 8.29383 28.2349 8.21821C28.4171 8.14259 28.5827 8.03176 28.722 7.89207L30.66 5.95107L32.598 7.89207C32.7373 8.03176 32.9029 8.14259 33.0851 8.21821C33.2673 8.29383 33.4627 8.33276 33.66 8.33276C33.8573 8.33276 34.0527 8.29383 34.2349 8.21821C34.4171 8.14259 34.5827 8.03176 34.722 7.89207L36.66 5.95107L38.598 7.89207C38.7373 8.03176 38.9029 8.14259 39.0851 8.21821C39.2673 8.29383 39.4627 8.33276 39.66 8.33276C39.8573 8.33276 40.0527 8.29383 40.2349 8.21821C40.4171 8.14259 40.5827 8.03176 40.722 7.89207L42.249 6.36207L42.66 7.18407V45.8301H6.66V7.18407L7.071 6.36207Z" fill="#6C63FF"/>
</svg>
