<svg width="48" height="49" viewBox="0 0 48 49" fill="none" xmlns="http://www.w3.org/2000/svg">
<path fill-rule="evenodd" clip-rule="evenodd" d="M33 45.8301C36.1826 45.8301 39.2348 44.5658 41.4853 42.3154C43.7357 40.0649 45 37.0127 45 33.8301C45 30.6475 43.7357 27.5952 41.4853 25.3448C39.2348 23.0944 36.1826 21.8301 33 21.8301C29.8174 21.8301 26.7652 23.0944 24.5147 25.3448C22.2643 27.5952 21 30.6475 21 33.8301C21 37.0127 22.2643 40.0649 24.5147 42.3154C26.7652 44.5658 29.8174 45.8301 33 45.8301ZM48 33.8301C48 37.8083 46.4196 41.6236 43.6066 44.4367C40.7936 47.2497 36.9782 48.8301 33 48.8301C29.0218 48.8301 25.2064 47.2497 22.3934 44.4367C19.5804 41.6236 18 37.8083 18 33.8301C18 29.8518 19.5804 26.0365 22.3934 23.2235C25.2064 20.4104 29.0218 18.8301 33 18.8301C36.9782 18.8301 40.7936 20.4104 43.6066 23.2235C46.4196 26.0365 48 29.8518 48 33.8301Z" fill="#6C63FF"/>
<path d="M28.314 36.6621C28.455 38.4501 29.868 39.8421 32.403 40.0101V41.3301H33.528V40.0011C36.153 39.8181 37.686 38.4141 37.686 36.3801C37.686 34.5261 36.516 33.5721 34.416 33.0801L33.528 32.8701V29.2701C34.656 29.3991 35.37 30.0141 35.541 30.8661H37.515C37.374 29.1411 35.895 27.7941 33.528 27.6471V26.3301H32.403V27.6801C30.162 27.8991 28.638 29.2461 28.638 31.1541C28.638 32.8401 29.772 33.9141 31.659 34.3521L32.403 34.5351V38.3511C31.251 38.1771 30.486 37.5411 30.315 36.6621H28.314ZM32.394 32.6001C31.287 32.3451 30.687 31.8201 30.687 31.0341C30.687 30.1521 31.335 29.4921 32.403 29.3001V32.6001H32.394ZM33.69 34.8381C35.037 35.1501 35.655 35.6541 35.655 36.5451C35.655 37.5621 34.884 38.2581 33.528 38.3871V34.8021L33.69 34.8381Z" fill="#6C63FF"/>
<path d="M3 0.830078C2.20435 0.830078 1.44129 1.14615 0.87868 1.70876C0.316071 2.27137 0 3.03443 0 3.83008L0 27.8301C0 28.6257 0.316071 29.3888 0.87868 29.9514C1.44129 30.514 2.20435 30.8301 3 30.8301H15.249C15.423 29.7981 15.684 28.7961 16.023 27.8301H9C9 26.2388 8.36786 24.7127 7.24264 23.5874C6.11742 22.4622 4.5913 21.8301 3 21.8301V9.83008C4.5913 9.83008 6.11742 9.19794 7.24264 8.07272C8.36786 6.9475 9 5.42138 9 3.83008H39C39 5.42138 39.6321 6.9475 40.7574 8.07272C41.8826 9.19794 43.4087 9.83008 45 9.83008V20.4141C46.14 21.4341 47.151 22.5981 48 23.8761V3.83008C48 3.03443 47.6839 2.27137 47.1213 1.70876C46.5587 1.14615 45.7957 0.830078 45 0.830078L3 0.830078Z" fill="#6C63FF"/>
<path d="M29.994 16.0791L30 15.83C29.9994 14.7968 29.732 13.7813 29.2236 12.8817C28.7153 11.9822 27.9833 11.2292 27.0985 10.6956C26.2137 10.162 25.2061 9.86598 24.1734 9.83612C23.1406 9.80627 22.1176 10.0436 21.2034 10.5252C20.2893 11.0068 19.515 11.7163 18.9556 12.5849C18.3961 13.4536 18.0705 14.452 18.0102 15.4835C17.9499 16.515 18.157 17.5445 18.6114 18.4725C19.0659 19.4004 19.7522 20.1952 20.604 20.7801C23.1953 18.3119 26.4653 16.6748 29.994 16.0791Z" fill="#6C63FF"/>
</svg>
