<svg width="49" height="49" viewBox="0 0 49 49" fill="none" xmlns="http://www.w3.org/2000/svg">
<path d="M9.33002 29.3301C8.13654 29.3301 6.99195 28.856 6.14804 28.0121C5.30412 27.1681 4.83002 26.0236 4.83002 24.8301C4.83002 23.6366 5.30412 22.492 6.14804 21.6481C6.99195 20.8042 8.13654 20.3301 9.33002 20.3301C10.5235 20.3301 11.6681 20.8042 12.512 21.6481C13.3559 22.492 13.83 23.6366 13.83 24.8301C13.83 26.0236 13.3559 27.1681 12.512 28.0121C11.6681 28.856 10.5235 29.3301 9.33002 29.3301ZM24.33 29.3301C23.1365 29.3301 21.9919 28.856 21.148 28.0121C20.3041 27.1681 19.83 26.0236 19.83 24.8301C19.83 23.6366 20.3041 22.492 21.148 21.6481C21.9919 20.8042 23.1365 20.3301 24.33 20.3301C25.5235 20.3301 26.6681 20.8042 27.512 21.6481C28.3559 22.492 28.83 23.6366 28.83 24.8301C28.83 26.0236 28.3559 27.1681 27.512 28.0121C26.6681 28.856 25.5235 29.3301 24.33 29.3301ZM39.33 29.3301C38.1365 29.3301 36.992 28.856 36.148 28.0121C35.3041 27.1681 34.83 26.0236 34.83 24.8301C34.83 23.6366 35.3041 22.492 36.148 21.6481C36.992 20.8042 38.1365 20.3301 39.33 20.3301C40.5235 20.3301 41.6681 20.8042 42.512 21.6481C43.3559 22.492 43.83 23.6366 43.83 24.8301C43.83 26.0236 43.3559 27.1681 42.512 28.0121C41.6681 28.856 40.5235 29.3301 39.33 29.3301Z" fill="#6C63FF"/>
</svg>
