<svg width="48" height="49" viewBox="0 0 48 49" fill="none" xmlns="http://www.w3.org/2000/svg">
<path fill-rule="evenodd" clip-rule="evenodd" d="M0 0.830078H3V45.8301H48V48.8301H0V0.830078ZM30 11.3301C30 10.9323 30.158 10.5507 30.4393 10.2694C30.7206 9.98811 31.1022 9.83008 31.5 9.83008H43.5C43.8978 9.83008 44.2794 9.98811 44.5607 10.2694C44.842 10.5507 45 10.9323 45 11.3301V23.3301C45 23.7279 44.842 24.1094 44.5607 24.3907C44.2794 24.672 43.8978 24.8301 43.5 24.8301C43.1022 24.8301 42.7206 24.672 42.4393 24.3907C42.158 24.1094 42 23.7279 42 23.3301V15.5301L31.161 28.7811C31.0283 28.943 30.8632 29.0754 30.6763 29.1697C30.4893 29.264 30.2847 29.3181 30.0756 29.3286C29.8665 29.339 29.6575 29.3056 29.4621 29.2304C29.2667 29.1552 29.0892 29.04 28.941 28.8921L21.18 21.1311L10.212 36.2121C9.97207 36.5172 9.62321 36.7174 9.23875 36.7706C8.85429 36.8239 8.46415 36.7261 8.15032 36.4977C7.83648 36.2693 7.6234 35.9282 7.55583 35.5459C7.48827 35.1637 7.57149 34.7702 7.788 34.4481L19.788 17.9481C19.9154 17.7726 20.0793 17.6269 20.2684 17.5208C20.4575 17.4148 20.6674 17.3511 20.8835 17.334C21.0997 17.3168 21.3169 17.3468 21.5204 17.4217C21.7238 17.4967 21.9086 17.6148 22.062 17.7681L29.889 25.5981L40.335 12.8301H31.5C31.1022 12.8301 30.7206 12.672 30.4393 12.3907C30.158 12.1094 30 11.7279 30 11.3301Z" fill="#6C63FF"/>
</svg>
