<svg width="49" height="49" viewBox="0 0 49 49" fill="none" xmlns="http://www.w3.org/2000/svg">
<path d="M36.33 3.83008C37.1257 3.83008 37.8887 4.14615 38.4513 4.70876C39.0139 5.27137 39.33 6.03443 39.33 6.83008V42.8301C39.33 43.6257 39.0139 44.3888 38.4513 44.9514C37.8887 45.514 37.1257 45.8301 36.33 45.8301H12.33C11.5344 45.8301 10.7713 45.514 10.2087 44.9514C9.64609 44.3888 9.33002 43.6257 9.33002 42.8301V6.83008C9.33002 6.03443 9.64609 5.27137 10.2087 4.70876C10.7713 4.14615 11.5344 3.83008 12.33 3.83008H36.33ZM12.33 0.830078C10.7387 0.830078 9.21259 1.46222 8.08738 2.58744C6.96216 3.71266 6.33002 5.23878 6.33002 6.83008V42.8301C6.33002 44.4214 6.96216 45.9475 8.08738 47.0727C9.21259 48.1979 10.7387 48.8301 12.33 48.8301H36.33C37.9213 48.8301 39.4474 48.1979 40.5727 47.0727C41.6979 45.9475 42.33 44.4214 42.33 42.8301V6.83008C42.33 5.23878 41.6979 3.71266 40.5727 2.58744C39.4474 1.46222 37.9213 0.830078 36.33 0.830078L12.33 0.830078Z" fill="#6C63FF"/>
<path d="M12.33 8.33008C12.33 7.93225 12.4881 7.55072 12.7694 7.26942C13.0507 6.98811 13.4322 6.83008 13.83 6.83008H34.83C35.2278 6.83008 35.6094 6.98811 35.8907 7.26942C36.172 7.55072 36.33 7.93225 36.33 8.33008V14.3301C36.33 14.7279 36.172 15.1094 35.8907 15.3907C35.6094 15.672 35.2278 15.8301 34.83 15.8301H13.83C13.4322 15.8301 13.0507 15.672 12.7694 15.3907C12.4881 15.1094 12.33 14.7279 12.33 14.3301V8.33008ZM12.33 20.3301C12.33 19.9323 12.4881 19.5507 12.7694 19.2694C13.0507 18.9881 13.4322 18.8301 13.83 18.8301H16.83C17.2278 18.8301 17.6094 18.9881 17.8907 19.2694C18.172 19.5507 18.33 19.9323 18.33 20.3301V23.3301C18.33 23.7279 18.172 24.1094 17.8907 24.3907C17.6094 24.672 17.2278 24.8301 16.83 24.8301H13.83C13.4322 24.8301 13.0507 24.672 12.7694 24.3907C12.4881 24.1094 12.33 23.7279 12.33 23.3301V20.3301ZM12.33 29.3301C12.33 28.9323 12.4881 28.5507 12.7694 28.2694C13.0507 27.9881 13.4322 27.8301 13.83 27.8301H16.83C17.2278 27.8301 17.6094 27.9881 17.8907 28.2694C18.172 28.5507 18.33 28.9323 18.33 29.3301V32.3301C18.33 32.7279 18.172 33.1094 17.8907 33.3907C17.6094 33.672 17.2278 33.8301 16.83 33.8301H13.83C13.4322 33.8301 13.0507 33.672 12.7694 33.3907C12.4881 33.1094 12.33 32.7279 12.33 32.3301V29.3301ZM12.33 38.3301C12.33 37.9323 12.4881 37.5507 12.7694 37.2694C13.0507 36.9881 13.4322 36.8301 13.83 36.8301H16.83C17.2278 36.8301 17.6094 36.9881 17.8907 37.2694C18.172 37.5507 18.33 37.9323 18.33 38.3301V41.3301C18.33 41.7279 18.172 42.1094 17.8907 42.3907C17.6094 42.672 17.2278 42.8301 16.83 42.8301H13.83C13.4322 42.8301 13.0507 42.672 12.7694 42.3907C12.4881 42.1094 12.33 41.7279 12.33 41.3301V38.3301ZM21.33 20.3301C21.33 19.9323 21.4881 19.5507 21.7694 19.2694C22.0507 18.9881 22.4322 18.8301 22.83 18.8301H25.83C26.2278 18.8301 26.6094 18.9881 26.8907 19.2694C27.172 19.5507 27.33 19.9323 27.33 20.3301V23.3301C27.33 23.7279 27.172 24.1094 26.8907 24.3907C26.6094 24.672 26.2278 24.8301 25.83 24.8301H22.83C22.4322 24.8301 22.0507 24.672 21.7694 24.3907C21.4881 24.1094 21.33 23.7279 21.33 23.3301V20.3301ZM21.33 29.3301C21.33 28.9323 21.4881 28.5507 21.7694 28.2694C22.0507 27.9881 22.4322 27.8301 22.83 27.8301H25.83C26.2278 27.8301 26.6094 27.9881 26.8907 28.2694C27.172 28.5507 27.33 28.9323 27.33 29.3301V32.3301C27.33 32.7279 27.172 33.1094 26.8907 33.3907C26.6094 33.672 26.2278 33.8301 25.83 33.8301H22.83C22.4322 33.8301 22.0507 33.672 21.7694 33.3907C21.4881 33.1094 21.33 32.7279 21.33 32.3301V29.3301ZM21.33 38.3301C21.33 37.9323 21.4881 37.5507 21.7694 37.2694C22.0507 36.9881 22.4322 36.8301 22.83 36.8301H25.83C26.2278 36.8301 26.6094 36.9881 26.8907 37.2694C27.172 37.5507 27.33 37.9323 27.33 38.3301V41.3301C27.33 41.7279 27.172 42.1094 26.8907 42.3907C26.6094 42.672 26.2278 42.8301 25.83 42.8301H22.83C22.4322 42.8301 22.0507 42.672 21.7694 42.3907C21.4881 42.1094 21.33 41.7279 21.33 41.3301V38.3301ZM30.33 20.3301C30.33 19.9323 30.4881 19.5507 30.7694 19.2694C31.0507 18.9881 31.4322 18.8301 31.83 18.8301H34.83C35.2278 18.8301 35.6094 18.9881 35.8907 19.2694C36.172 19.5507 36.33 19.9323 36.33 20.3301V23.3301C36.33 23.7279 36.172 24.1094 35.8907 24.3907C35.6094 24.672 35.2278 24.8301 34.83 24.8301H31.83C31.4322 24.8301 31.0507 24.672 30.7694 24.3907C30.4881 24.1094 30.33 23.7279 30.33 23.3301V20.3301ZM30.33 29.3301C30.33 28.9323 30.4881 28.5507 30.7694 28.2694C31.0507 27.9881 31.4322 27.8301 31.83 27.8301H34.83C35.2278 27.8301 35.6094 27.9881 35.8907 28.2694C36.172 28.5507 36.33 28.9323 36.33 29.3301V41.3301C36.33 41.7279 36.172 42.1094 35.8907 42.3907C35.6094 42.672 35.2278 42.8301 34.83 42.8301H31.83C31.4322 42.8301 31.0507 42.672 30.7694 42.3907C30.4881 42.1094 30.33 41.7279 30.33 41.3301V29.3301Z" fill="#6C63FF"/>
</svg>
