<svg width="49" height="49" viewBox="0 0 49 49" fill="none" xmlns="http://www.w3.org/2000/svg">
<path d="M24.6605 0.830078L44.4905 9.83008H47.1605C47.5584 9.83008 47.9399 9.98811 48.2212 10.2694C48.5025 10.5507 48.6605 10.9323 48.6605 11.3301V17.3301C48.6605 17.7279 48.5025 18.1094 48.2212 18.3907C47.9399 18.672 47.5584 18.8301 47.1605 18.8301H45.6605V39.8301C45.9955 39.8303 46.3208 39.9427 46.5845 40.1493C46.8482 40.3559 47.0351 40.6449 47.1155 40.9701L48.6155 46.9701C48.6714 47.191 48.6759 47.4219 48.6288 47.6448C48.5817 47.8678 48.4842 48.0771 48.3438 48.2566C48.2034 48.4361 48.0237 48.5811 47.8186 48.6805C47.6136 48.7799 47.3884 48.8311 47.1605 48.8301H2.16053C1.93262 48.8311 1.70751 48.7799 1.50242 48.6805C1.29733 48.5811 1.11769 48.4361 0.977271 48.2566C0.836847 48.0771 0.739355 47.8678 0.692255 47.6448C0.645155 47.4219 0.649697 47.191 0.705532 46.9701L2.20553 40.9701C2.28641 40.6451 2.47348 40.3565 2.73707 40.15C3.00066 39.9434 3.32567 39.8309 3.66053 39.8301V18.8301H2.16053C1.76271 18.8301 1.38118 18.672 1.09987 18.3907C0.818568 18.1094 0.660532 17.7279 0.660532 17.3301V11.3301C0.660532 10.9323 0.818568 10.5507 1.09987 10.2694C1.38118 9.98811 1.76271 9.83008 2.16053 9.83008H4.83053L24.6605 0.830078ZM11.9915 9.83008H37.3325L24.6605 3.83008L11.9915 9.83008ZM6.66053 18.8301V39.8301H9.66053V18.8301H6.66053ZM12.6605 18.8301V39.8301H20.1605V18.8301H12.6605ZM23.1605 18.8301V39.8301H26.1605V18.8301H23.1605ZM29.1605 18.8301V39.8301H36.6605V18.8301H29.1605ZM39.6605 18.8301V39.8301H42.6605V18.8301H39.6605ZM45.6605 15.8301V12.8301H3.66053V15.8301H45.6605ZM44.4905 42.8301H4.83053L4.08053 45.8301H45.2405L44.4905 42.8301Z" fill="#6C63FF"/>
</svg>
