<svg width="55" height="55" viewBox="0 0 55 55" fill="none" xmlns="http://www.w3.org/2000/svg">
<rect x="0.579987" y="0.210205" width="54" height="54" rx="6" fill="#6C63FF" fill-opacity="0.18"/>
<path d="M18.83 37.7102C18.83 37.7102 17.08 37.7102 17.08 35.9602C17.08 34.2102 18.83 28.9602 27.58 28.9602C36.33 28.9602 38.08 34.2102 38.08 35.9602C38.08 37.7102 36.33 37.7102 36.33 37.7102H18.83ZM27.58 27.2102C28.9724 27.2102 30.3077 26.6571 31.2923 25.6725C32.2769 24.6879 32.83 23.3526 32.83 21.9602C32.83 20.5678 32.2769 19.2325 31.2923 18.2479C30.3077 17.2633 28.9724 16.7102 27.58 16.7102C26.1876 16.7102 24.8522 17.2633 23.8677 18.2479C22.8831 19.2325 22.33 20.5678 22.33 21.9602C22.33 23.3526 22.8831 24.6879 23.8677 25.6725C24.8522 26.6571 26.1876 27.2102 27.58 27.2102Z" fill="#6C63FF"/>
</svg>
