<svg width="234" height="46" viewBox="0 0 234 46" fill="none" xmlns="http://www.w3.org/2000/svg">
<path d="M77.1496 9.7493C77.1496 8.45775 77.3907 7.23508 77.8729 6.0813C78.3723 4.92752 79.0611 3.90289 79.9394 3.00742C80.8176 2.11195 81.8336 1.41451 82.9874 0.915112C84.1412 0.398493 85.3811 0.140184 86.7071 0.140184C88.0158 0.140184 89.2471 0.398493 90.4009 0.915112C91.5547 1.41451 92.5793 2.11195 93.4748 3.00742C94.3702 3.90289 95.0677 4.92752 95.5671 6.0813C96.0665 7.23508 96.3162 8.45775 96.3162 9.7493C96.3162 11.0753 96.0665 12.3152 95.5671 13.469C95.0677 14.6227 94.3702 15.6388 93.4748 16.517C92.5965 17.3953 91.5719 18.0841 90.4009 18.5835C89.2471 19.0657 88.0158 19.3067 86.7071 19.3067C85.3811 19.3067 84.1412 19.0657 82.9874 18.5835C81.8336 18.1013 80.8176 17.4297 79.9394 16.5687C79.0611 15.6904 78.3723 14.6744 77.8729 13.5206C77.3907 12.3496 77.1496 11.0925 77.1496 9.7493ZM79.991 9.7493C79.991 10.7137 80.1632 11.6177 80.5076 12.4615C80.8693 13.2881 81.3601 14.02 81.98 14.6572C82.5999 15.2771 83.3146 15.7679 84.124 16.1295C84.9506 16.474 85.8374 16.6462 86.7846 16.6462C87.7145 16.6462 88.5841 16.474 89.3935 16.1295C90.2028 15.7679 90.9089 15.2771 91.5116 14.6572C92.1316 14.02 92.6137 13.2881 92.9581 12.4615C93.3026 11.6177 93.4748 10.7137 93.4748 9.7493C93.4748 8.78494 93.294 7.88947 92.9323 7.06288C92.5879 6.21907 92.1057 5.47858 91.4858 4.84142C90.8831 4.20425 90.1684 3.70485 89.3418 3.34322C88.5324 2.98159 87.6628 2.80077 86.7329 2.80077C85.7685 2.80077 84.8817 2.98159 84.0723 3.34322C83.2629 3.70485 82.5483 4.20425 81.9283 4.84142C81.3084 5.47858 80.8262 6.21907 80.4818 7.06288C80.1546 7.90669 79.991 8.80216 79.991 9.7493ZM102.14 12.4099C102.14 13.202 102.338 13.9167 102.734 14.5539C103.13 15.191 103.655 15.699 104.309 16.0779C104.964 16.4567 105.696 16.6462 106.505 16.6462C107.366 16.6462 108.132 16.4567 108.804 16.0779C109.476 15.699 110.001 15.191 110.38 14.5539C110.776 13.9167 110.974 13.202 110.974 12.4099V0.346832H113.686V12.4874C113.686 13.8478 113.367 15.0446 112.73 16.0779C112.093 17.0939 111.232 17.886 110.147 18.4543C109.062 19.0226 107.848 19.3067 106.505 19.3067C105.196 19.3067 103.999 19.0226 102.915 18.4543C101.83 17.886 100.969 17.0939 100.331 16.0779C99.7115 15.0446 99.4016 13.8478 99.4016 12.4874V0.346832H102.14V12.4099ZM116.536 0.346832H129.038V3.00742H124.104V19.1001H121.341V3.00742H116.536V0.346832ZM141.929 3.93733C141.274 3.59292 140.568 3.30017 139.81 3.05908C139.053 2.81799 138.321 2.69745 137.615 2.69745C136.65 2.69745 135.884 2.92132 135.316 3.36905C134.748 3.79957 134.463 4.39368 134.463 5.15139C134.463 5.68523 134.653 6.15018 135.032 6.54626C135.411 6.94233 135.901 7.28675 136.504 7.5795C137.107 7.87225 137.744 8.14778 138.416 8.40609C138.984 8.61273 139.544 8.86243 140.095 9.15518C140.663 9.43071 141.171 9.77513 141.619 10.1884C142.084 10.6017 142.445 11.1183 142.704 11.7383C142.979 12.341 143.117 13.0815 143.117 13.9597C143.117 14.9585 142.867 15.8626 142.368 16.672C141.886 17.4814 141.179 18.1271 140.25 18.6093C139.337 19.0743 138.226 19.3067 136.917 19.3067C136.125 19.3067 135.35 19.2206 134.593 19.0484C133.852 18.859 133.146 18.6179 132.474 18.3252C131.82 18.0152 131.226 17.6794 130.692 17.3178L131.932 15.1738C132.345 15.4665 132.819 15.7507 133.353 16.0262C133.887 16.2845 134.438 16.4912 135.006 16.6462C135.591 16.8011 136.142 16.8786 136.659 16.8786C137.227 16.8786 137.787 16.7839 138.338 16.5945C138.889 16.3878 139.345 16.0779 139.707 15.6646C140.069 15.2341 140.25 14.6744 140.25 13.9856C140.25 13.4001 140.086 12.9093 139.759 12.5132C139.449 12.0999 139.027 11.7469 138.493 11.4541C137.976 11.1614 137.417 10.9031 136.814 10.6792C136.229 10.4553 135.634 10.2056 135.032 9.93011C134.429 9.65458 133.869 9.32739 133.353 8.94854C132.836 8.55246 132.414 8.07028 132.087 7.502C131.777 6.9165 131.622 6.20185 131.622 5.35804C131.622 4.35924 131.855 3.4896 132.319 2.74911C132.802 1.9914 133.465 1.39729 134.308 0.966774C135.152 0.536258 136.125 0.295169 137.227 0.243508C138.484 0.243508 139.578 0.398494 140.508 0.708465C141.438 1.01844 142.264 1.38868 142.988 1.8192L141.929 3.93733ZM145.262 9.7493C145.262 8.45775 145.503 7.23508 145.985 6.0813C146.484 4.92752 147.173 3.90289 148.051 3.00742C148.93 2.11195 149.946 1.41451 151.099 0.915112C152.253 0.398493 153.493 0.140184 154.819 0.140184C156.128 0.140184 157.359 0.398493 158.513 0.915112C159.667 1.41451 160.691 2.11195 161.587 3.00742C162.482 3.90289 163.18 4.92752 163.679 6.0813C164.178 7.23508 164.428 8.45775 164.428 9.7493C164.428 11.0753 164.178 12.3152 163.679 13.469C163.18 14.6227 162.482 15.6388 161.587 16.517C160.708 17.3953 159.684 18.0841 158.513 18.5835C157.359 19.0657 156.128 19.3067 154.819 19.3067C153.493 19.3067 152.253 19.0657 151.099 18.5835C149.946 18.1013 148.93 17.4297 148.051 16.5687C147.173 15.6904 146.484 14.6744 145.985 13.5206C145.503 12.3496 145.262 11.0925 145.262 9.7493ZM148.103 9.7493C148.103 10.7137 148.275 11.6177 148.62 12.4615C148.981 13.2881 149.472 14.02 150.092 14.6572C150.712 15.2771 151.427 15.7679 152.236 16.1295C153.063 16.474 153.949 16.6462 154.897 16.6462C155.826 16.6462 156.696 16.474 157.505 16.1295C158.315 15.7679 159.021 15.2771 159.624 14.6572C160.244 14.02 160.726 13.2881 161.07 12.4615C161.415 11.6177 161.587 10.7137 161.587 9.7493C161.587 8.78494 161.406 7.88947 161.044 7.06288C160.7 6.21907 160.218 5.47858 159.598 4.84142C158.995 4.20425 158.28 3.70485 157.454 3.34322C156.644 2.98159 155.775 2.80077 154.845 2.80077C153.88 2.80077 152.994 2.98159 152.184 3.34322C151.375 3.70485 150.66 4.20425 150.04 4.84142C149.42 5.47858 148.938 6.21907 148.594 7.06288C148.267 7.90669 148.103 8.80216 148.103 9.7493ZM170.252 12.4099C170.252 13.202 170.45 13.9167 170.846 14.5539C171.242 15.191 171.767 15.699 172.421 16.0779C173.076 16.4567 173.808 16.6462 174.617 16.6462C175.478 16.6462 176.244 16.4567 176.916 16.0779C177.588 15.699 178.113 15.191 178.492 14.5539C178.888 13.9167 179.086 13.202 179.086 12.4099V0.346832H181.798V12.4874C181.798 13.8478 181.479 15.0446 180.842 16.0779C180.205 17.0939 179.344 17.886 178.259 18.4543C177.174 19.0226 175.96 19.3067 174.617 19.3067C173.308 19.3067 172.111 19.0226 171.027 18.4543C169.942 17.886 169.081 17.0939 168.443 16.0779C167.823 15.0446 167.514 13.8478 167.514 12.4874V0.346832H170.252V12.4099ZM191.157 0.346832C192.139 0.346832 193.043 0.484597 193.87 0.760126C194.713 1.01844 195.428 1.39729 196.014 1.89669C196.616 2.39609 197.081 3.01603 197.408 3.75652C197.753 4.47978 197.925 5.32359 197.925 6.28795C197.925 7.02844 197.813 7.76031 197.589 8.48358C197.365 9.20685 197.004 9.86123 196.504 10.4467C196.005 11.0322 195.351 11.5058 194.541 11.8674C193.732 12.2118 192.724 12.3841 191.519 12.3841H188.781V19.1001H186.017V0.346832H191.157ZM191.467 9.7493C192.173 9.7493 192.759 9.63736 193.224 9.41349C193.706 9.18962 194.076 8.9141 194.335 8.5869C194.61 8.24249 194.799 7.88086 194.903 7.502C195.023 7.10593 195.084 6.72707 195.084 6.36544C195.084 6.02103 195.023 5.6594 194.903 5.28054C194.799 4.90169 194.61 4.54005 194.335 4.19564C194.076 3.85123 193.723 3.56709 193.275 3.34322C192.828 3.11935 192.277 3.00742 191.622 3.00742H188.781V9.7493H191.467ZM194.644 11.3508L199.501 19.1001H196.298L191.364 11.4283L194.644 11.3508ZM215.786 17.6794C215.511 17.8688 215.097 18.1013 214.546 18.3768C214.012 18.6351 213.375 18.859 212.635 19.0484C211.911 19.2379 211.111 19.324 210.232 19.3067C208.769 19.2895 207.451 19.0312 206.28 18.5318C205.127 18.0324 204.145 17.3522 203.336 16.4912C202.526 15.6129 201.898 14.6141 201.45 13.4948C201.019 12.3582 200.804 11.1528 200.804 9.87845C200.804 8.46636 201.028 7.17481 201.476 6.00381C201.923 4.81558 202.561 3.78235 203.387 2.90409C204.231 2.02584 205.213 1.34563 206.332 0.86345C207.469 0.381273 208.708 0.140184 210.052 0.140184C211.205 0.140184 212.247 0.29517 213.177 0.605141C214.107 0.915113 214.891 1.27675 215.528 1.69004L214.443 4.27314C213.943 3.92872 213.324 3.60153 212.583 3.29156C211.86 2.96437 211.05 2.80077 210.155 2.80077C209.277 2.80077 208.442 2.98159 207.649 3.34322C206.874 3.68763 206.186 4.17842 205.583 4.81558C204.997 5.43553 204.532 6.1674 204.188 7.01122C203.844 7.83781 203.671 8.74189 203.671 9.72346C203.671 10.7223 203.826 11.6436 204.136 12.4874C204.446 13.3312 204.885 14.0631 205.454 14.683C206.039 15.3029 206.737 15.7851 207.546 16.1295C208.355 16.474 209.268 16.6462 210.284 16.6462C211.248 16.6462 212.092 16.4998 212.816 16.207C213.556 15.9143 214.159 15.5785 214.624 15.1996L215.786 17.6794ZM219.152 0.346832H231.474V3.00742H221.916V8.35442H230.414V11.015H221.916V16.4395H231.835V19.1001H219.152V0.346832Z" fill="#4632DA"/>
<path d="M84.3134 38.68C83.349 38.68 82.4708 38.4648 81.6786 38.0343C80.9037 37.5865 80.2838 36.9666 79.8188 36.1744C79.3711 35.3823 79.1472 34.461 79.1472 33.4105C79.1472 32.2912 79.3883 31.3354 79.8705 30.5433C80.3527 29.7339 81.007 29.1226 81.8336 28.7093C82.6602 28.2788 83.5987 28.0635 84.6492 28.0635C85.5447 28.0635 86.3885 28.3304 87.1806 28.8643C87.99 29.3981 88.5669 30.0697 88.9113 30.8791L88.7305 31.2407L88.8855 28.3735H89.9704V38.4734H88.7563V35.3478L89.0146 35.8128C88.8941 36.1572 88.6874 36.5016 88.3947 36.846C88.1019 37.1732 87.7403 37.4832 87.3098 37.776C86.8965 38.0515 86.4315 38.2754 85.9149 38.4476C85.4155 38.6025 84.8817 38.68 84.3134 38.68ZM84.5717 37.6468C85.3294 37.6468 86.0096 37.4918 86.6124 37.1818C87.2323 36.8546 87.7317 36.4069 88.1106 35.8386C88.4894 35.2704 88.7047 34.616 88.7563 33.8755V32.4289C88.6186 31.7918 88.343 31.2235 87.9297 30.7241C87.5337 30.2247 87.0429 29.8286 86.4574 29.5359C85.8719 29.2431 85.2347 29.0968 84.5459 29.0968C83.7882 29.0968 83.0907 29.2776 82.4536 29.6392C81.8164 29.9836 81.3084 30.4744 80.9295 31.1116C80.5507 31.7487 80.3613 32.4978 80.3613 33.3589C80.3613 34.151 80.5507 34.8743 80.9295 35.5287C81.3084 36.1658 81.8164 36.6824 82.4536 37.0785C83.108 37.4574 83.814 37.6468 84.5717 37.6468ZM106.233 37.4918C105.768 37.8707 105.243 38.1634 104.658 38.3701C104.072 38.5767 103.461 38.68 102.824 38.68C101.79 38.68 100.869 38.4562 100.06 38.0084C99.2504 37.5435 98.6133 36.9149 98.1483 36.1228C97.6833 35.3306 97.4509 34.4265 97.4509 33.4105C97.4509 32.3945 97.6919 31.4904 98.1741 30.6983C98.6563 29.9061 99.2935 29.2862 100.086 28.8384C100.895 28.3735 101.773 28.141 102.72 28.141C103.426 28.141 104.081 28.2443 104.684 28.451C105.286 28.6576 105.811 28.9504 106.259 29.3292L105.613 30.1558C105.252 29.8631 104.83 29.622 104.348 29.4326C103.866 29.2431 103.349 29.1484 102.798 29.1484C102.04 29.1484 101.343 29.3378 100.706 29.7167C100.086 30.0956 99.5862 30.6122 99.2074 31.2666C98.8457 31.9037 98.6649 32.6184 98.6649 33.4105C98.6649 34.1855 98.8457 34.9001 99.2074 35.5545C99.5862 36.1917 100.094 36.6997 100.731 37.0785C101.386 37.4574 102.109 37.6468 102.901 37.6468C103.418 37.6468 103.9 37.5693 104.348 37.4143C104.795 37.2421 105.2 37.0182 105.562 36.7427L106.233 37.4918ZM121.283 37.4918C120.818 37.8707 120.293 38.1634 119.707 38.3701C119.122 38.5767 118.51 38.68 117.873 38.68C116.84 38.68 115.919 38.4562 115.109 38.0084C114.3 37.5435 113.663 36.9149 113.198 36.1228C112.733 35.3306 112.5 34.4265 112.5 33.4105C112.5 32.3945 112.742 31.4904 113.224 30.6983C113.706 29.9061 114.343 29.2862 115.135 28.8384C115.945 28.3735 116.823 28.141 117.77 28.141C118.476 28.141 119.13 28.2443 119.733 28.451C120.336 28.6576 120.861 28.9504 121.309 29.3292L120.663 30.1558C120.301 29.8631 119.879 29.622 119.397 29.4326C118.915 29.2431 118.398 29.1484 117.847 29.1484C117.09 29.1484 116.392 29.3378 115.755 29.7167C115.135 30.0956 114.636 30.6122 114.257 31.2666C113.895 31.9037 113.714 32.6184 113.714 33.4105C113.714 34.1855 113.895 34.9001 114.257 35.5545C114.636 36.1917 115.144 36.6997 115.781 37.0785C116.435 37.4574 117.159 37.6468 117.951 37.6468C118.467 37.6468 118.95 37.5693 119.397 37.4143C119.845 37.2421 120.25 37.0182 120.611 36.7427L121.283 37.4918ZM127.55 33.3589C127.55 32.3773 127.782 31.4818 128.247 30.6724C128.73 29.8631 129.375 29.2259 130.185 28.761C131.011 28.2788 131.933 28.0377 132.949 28.0377C133.982 28.0377 134.903 28.2788 135.713 28.761C136.522 29.2259 137.159 29.8631 137.624 30.6724C138.089 31.4818 138.321 32.3773 138.321 33.3589C138.321 34.3404 138.089 35.2359 137.624 36.0453C137.159 36.8546 136.513 37.5004 135.687 37.9826C134.877 38.4476 133.965 38.68 132.949 38.68C131.915 38.68 130.994 38.4562 130.185 38.0084C129.375 37.5435 128.73 36.9149 128.247 36.1228C127.782 35.3134 127.55 34.3921 127.55 33.3589ZM128.764 33.3847C128.764 34.1768 128.945 34.9001 129.306 35.5545C129.685 36.1917 130.185 36.6997 130.805 37.0785C131.442 37.4574 132.148 37.6468 132.923 37.6468C133.698 37.6468 134.395 37.4574 135.015 37.0785C135.652 36.6997 136.152 36.1917 136.513 35.5545C136.892 34.9001 137.082 34.1768 137.082 33.3847C137.082 32.5925 136.892 31.8779 136.513 31.2407C136.152 30.5863 135.652 30.0697 135.015 29.6909C134.395 29.2948 133.698 29.0968 132.923 29.0968C132.131 29.0968 131.416 29.3034 130.779 29.7167C130.159 30.1128 129.668 30.638 129.306 31.2924C128.945 31.9468 128.764 32.6442 128.764 33.3847ZM148.978 38.7575C148.031 38.7575 147.273 38.482 146.705 37.9309C146.137 37.3627 145.835 36.6308 145.801 35.7353V28.3735H147.015V35.3737C147.049 36.0281 147.256 36.5705 147.635 37.001C148.031 37.4315 148.617 37.664 149.391 37.6985C150.046 37.6985 150.657 37.5263 151.225 37.1818C151.794 36.8374 152.25 36.3725 152.594 35.787C152.956 35.1842 153.137 34.504 153.137 33.7463V28.3735H154.351V38.4734H153.266L153.137 35.2962L153.318 35.9936C153.146 36.5102 152.836 36.9838 152.388 37.4143C151.957 37.8276 151.441 38.1548 150.838 38.3959C150.252 38.637 149.633 38.7575 148.978 38.7575ZM163.877 28.3735L164.006 31.5507L163.851 30.9308C164.144 30.0525 164.695 29.3637 165.504 28.8643C166.331 28.3477 167.244 28.0893 168.243 28.0893C169.19 28.0893 169.956 28.3735 170.542 28.9418C171.127 29.4928 171.428 30.2161 171.446 31.1116V38.4734H170.206V31.4474C170.189 30.793 169.982 30.2505 169.586 29.82C169.19 29.3895 168.613 29.1656 167.855 29.1484C167.184 29.1484 166.555 29.312 165.969 29.6392C165.384 29.9664 164.91 30.4227 164.549 31.0082C164.204 31.5937 164.032 32.274 164.032 33.0489V38.4734H162.818V28.3735H163.877ZM180.918 23.9306H182.158V28.5026H185.284V29.4842H182.158V38.4734H180.918V29.4842H178.774V28.5026H180.918V23.9306ZM192.186 28.3735H193.4V38.4734H192.186V28.3735ZM191.927 24.6538C191.927 24.4127 192.022 24.2147 192.211 24.0597C192.401 23.8875 192.608 23.8014 192.831 23.8014C193.073 23.8014 193.279 23.8875 193.451 24.0597C193.624 24.2147 193.71 24.4127 193.71 24.6538C193.71 24.9121 193.624 25.1274 193.451 25.2996C193.279 25.4546 193.073 25.5321 192.831 25.5321C192.608 25.5321 192.401 25.446 192.211 25.2738C192.022 25.1016 191.927 24.8949 191.927 24.6538ZM202.921 28.3735L203.05 31.5507L202.895 30.9308C203.188 30.0525 203.739 29.3637 204.549 28.8643C205.375 28.3477 206.288 28.0893 207.287 28.0893C208.234 28.0893 209 28.3735 209.586 28.9418C210.171 29.4928 210.472 30.2161 210.49 31.1116V38.4734H209.25V31.4474C209.233 30.793 209.026 30.2505 208.63 29.82C208.234 29.3895 207.657 29.1656 206.899 29.1484C206.228 29.1484 205.599 29.312 205.014 29.6392C204.428 29.9664 203.954 30.4227 203.593 31.0082C203.248 31.5937 203.076 32.274 203.076 33.0489V38.4734H201.862V28.3735H202.921ZM223.45 43.4071C222.881 43.4071 222.339 43.3382 221.822 43.2005C221.306 43.0799 220.798 42.8646 220.298 42.5547C219.799 42.2447 219.282 41.84 218.748 41.3406L219.472 40.514C220.212 41.2201 220.901 41.6936 221.538 41.9347C222.175 42.193 222.795 42.3222 223.398 42.3222C224.448 42.3222 225.284 42.15 225.903 41.8056C226.523 41.4784 226.971 41.0307 227.247 40.4624C227.522 39.9113 227.669 39.2914 227.686 38.6025L227.712 35.322L227.996 35.632C227.651 36.5275 227.031 37.2593 226.136 37.8276C225.258 38.3959 224.259 38.68 223.14 38.68C222.192 38.68 221.323 38.4476 220.531 37.9826C219.756 37.5004 219.136 36.8633 218.671 36.0711C218.206 35.2617 217.973 34.3663 217.973 33.3847C217.973 32.3342 218.214 31.4129 218.697 30.6208C219.179 29.8286 219.833 29.2087 220.66 28.761C221.486 28.296 222.399 28.0635 223.398 28.0635C224.328 28.0635 225.206 28.3046 226.033 28.7868C226.876 29.269 227.488 29.9061 227.867 30.6983L227.712 31.2666L227.841 28.3735H228.926V38.6284C228.926 39.455 228.736 40.2299 228.357 40.9532C227.996 41.6936 227.41 42.2878 226.601 42.7355C225.809 43.1832 224.758 43.4071 223.45 43.4071ZM219.187 33.3589C219.187 34.151 219.377 34.8743 219.756 35.5287C220.135 36.1658 220.643 36.6824 221.28 37.0785C221.934 37.4574 222.657 37.6468 223.45 37.6468C224.207 37.6468 224.896 37.4832 225.516 37.156C226.136 36.8116 226.644 36.3553 227.04 35.787C227.436 35.2187 227.66 34.6074 227.712 33.953V32.4548C227.574 31.8004 227.298 31.2235 226.885 30.7241C226.489 30.2247 225.99 29.8286 225.387 29.5359C224.801 29.2431 224.156 29.0968 223.45 29.0968C222.657 29.0968 221.934 29.2776 221.28 29.6392C220.643 30.0008 220.135 30.5002 219.756 31.1374C219.377 31.7746 219.187 32.5151 219.187 33.3589Z" fill="#454545"/>
<circle cx="19.5919" cy="19.5921" r="14.6939" stroke="#4632DA" stroke-width="9.79594"/>
<path d="M39.6237 38.0337C41.6415 38.4773 43.7137 37.2799 44.3943 35.3452L46.6812 28.4942L43.2142 26.5413C42.8159 26.3197 42.3829 26.1672 41.9337 26.0904C40.691 25.8731 39.3315 26.2056 38.553 27.24C38.5026 27.3038 38.434 27.3509 38.3564 27.375L36.6315 32.5941C35.8225 34.895 37.2265 37.5079 39.6245 38.0345L39.6237 38.0337ZM43.387 21.3478C45.2452 20.5602 47.3231 20.3306 49.3179 20.5972L54.5057 5.06671C54.6768 4.54277 54.9176 4.04425 55.2217 3.58459C55.6719 2.92871 56.1475 2.50489 56.768 2.20863C57.1005 2.04569 57.563 2.00948 58.0534 2.04734C55.7484 1.07627 53.2063 0.701006 50.791 1.46716C48.6866 2.13509 46.9055 3.56106 45.7933 5.4683C45.5077 5.96207 45.2699 6.48299 45.0814 7.02201L39.1735 24.9004C39.3957 24.605 39.6212 24.3202 39.8533 24.0478C40.8318 22.8974 41.9246 21.9683 43.3886 21.3478H43.387Z" fill="#4632DA"/>
<path d="M70.1612 31.7707C70.1225 31.8127 70.0879 31.8588 70.0418 31.8892C69.4559 32.2793 68.5655 31.5107 68.0437 31.2086C64.0928 28.925 60.1534 26.6224 56.1777 24.3832C54.0241 23.1702 52.0095 21.8971 49.5448 21.4486C45.9585 20.8939 42.4379 22.1151 40.5493 24.5856L39.9814 25.3411C40.3769 25.2361 40.7845 25.1838 41.1936 25.1855C41.4158 25.1855 41.6372 25.2028 41.8569 25.2324C42.5126 25.3066 43.1464 25.5129 43.7201 25.839L64.3158 37.4416C66.2209 38.4958 68.642 38.3032 69.939 36.4211L70.0608 36.2327C70.388 35.703 70.5933 35.1071 70.6616 34.4881C70.73 33.8692 70.6596 33.2429 70.4558 32.6545L70.1628 31.7707H70.1612ZM57.0278 3.15952C55.6906 3.80718 55.4322 5.19795 55.0059 6.47515L54.1179 9.13325L59.4423 25.2349L69.5053 31.0572C69.5407 30.8712 69.5695 30.4927 69.4847 29.7257C69.4797 29.7038 69.4764 29.6815 69.4748 29.659C68.8988 27.9095 62.0033 6.42084 61.3293 5.01443C61.0035 4.33468 60.5327 3.70513 59.8917 3.30848C59.4634 3.05 58.9779 2.90124 58.4783 2.8754C57.9787 2.84956 57.4805 2.94743 57.0278 3.16035V3.15952Z" fill="#4632DA"/>
</svg>
