<svg width="24" height="24" viewBox="0 0 24 24" fill="none" xmlns="http://www.w3.org/2000/svg">
<path d="M19.875 1.5C21.324 1.5 22.5 2.676 22.5 4.125V19.875C22.5 20.5712 22.2234 21.2389 21.7312 21.7312C21.2389 22.2234 20.5712 22.5 19.875 22.5H4.125C3.42881 22.5 2.76113 22.2234 2.26884 21.7312C1.77656 21.2389 1.5 20.5712 1.5 19.875V4.125C1.5 2.676 2.676 1.5 4.125 1.5H19.875ZM4.125 3.75C4.02554 3.75 3.93016 3.78951 3.85984 3.85984C3.78951 3.93016 3.75 4.02554 3.75 4.125V19.875C3.75 20.082 3.918 20.25 4.125 20.25H19.875C19.9745 20.25 20.0698 20.2105 20.1402 20.1402C20.2105 20.0698 20.25 19.9745 20.25 19.875V4.125C20.25 4.02554 20.2105 3.93016 20.1402 3.85984C20.0698 3.78951 19.9745 3.75 19.875 3.75H4.125ZM16.875 13.125H7.125C6.82663 13.125 6.54048 13.0065 6.3295 12.7955C6.11853 12.5845 6 12.2984 6 12C6 11.7016 6.11853 11.4155 6.3295 11.2045C6.54048 10.9935 6.82663 10.875 7.125 10.875H16.875C17.1734 10.875 17.4595 10.9935 17.6705 11.2045C17.8815 11.4155 18 11.7016 18 12C18 12.2984 17.8815 12.5845 17.6705 12.7955C17.4595 13.0065 17.1734 13.125 16.875 13.125Z" fill="black"/>
</svg>
