<svg width="24" height="24" viewBox="0 0 24 24" fill="none" xmlns="http://www.w3.org/2000/svg">
<path d="M16.5042 19.2634L22.0002 12.1804L16.5042 5.41939V19.2634ZM7.86118 14.2154C7.56929 13.6945 7.38326 13.1211 7.31377 12.5281C7.24427 11.935 7.2927 11.3341 7.45627 10.7599C7.61983 10.1857 7.8953 9.64942 8.26684 9.18202C8.63837 8.71462 9.09865 8.32528 9.62118 8.03639C10.3431 7.63481 11.1599 7.43505 11.9857 7.4581C12.8114 7.48115 13.6158 7.72616 14.3142 8.16739L17.1332 3.70539C15.6336 2.75723 13.9061 2.23082 12.1326 2.18154C10.3591 2.13227 8.60511 2.56195 7.05518 3.42539C5.92539 4.05201 4.93055 4.89569 4.1278 5.90796C3.32506 6.92023 2.73023 8.08113 2.37749 9.32398C2.02476 10.5668 1.92107 11.8671 2.07237 13.1502C2.22368 14.4332 2.62701 15.6737 3.25918 16.8004C4.5408 19.0724 6.66915 20.7451 9.17967 21.4535C11.6902 22.1619 14.379 21.8484 16.6592 20.5814L14.0922 15.9704C13.0319 16.5579 11.7825 16.7031 10.6157 16.3744C9.44894 16.0458 8.45902 15.2699 7.86118 14.2154Z" fill="black"/>
</svg>
