<svg width="63" height="63" viewBox="0 0 63 63" fill="none" xmlns="http://www.w3.org/2000/svg">
<path d="M42.806 31.3158C42.806 34.3632 41.5955 37.2858 39.4406 39.4407C37.2858 41.5955 34.3632 42.8061 31.3157 42.8061C28.2683 42.8061 25.3457 41.5955 23.1909 39.4407C21.036 37.2858 19.8255 34.3632 19.8255 31.3158C19.8255 28.2684 21.036 25.3458 23.1909 23.191C25.3457 21.0361 28.2683 19.8255 31.3157 19.8255C34.3632 19.8255 37.2858 21.0361 39.4406 23.191C41.5955 25.3458 42.806 28.2684 42.806 31.3158ZM51.8015 47.4957C55.9489 42.2729 57.9394 35.6604 57.3641 29.016C56.7889 22.3716 53.6916 16.1996 48.7082 11.7673C43.7249 7.33499 37.2337 4.97883 30.5675 5.18261C23.9014 5.38638 17.5662 8.13462 12.8629 12.863C8.10686 17.624 5.37386 24.0382 5.2346 30.7664C5.09534 37.4945 7.56057 44.0163 12.1155 48.9701C16.6705 53.9238 22.9631 56.9264 29.6792 57.3509C36.3954 57.7755 43.0159 55.5891 48.1584 51.2483L41.1124 44.2023C37.8763 46.6601 33.8338 47.8103 29.7885 47.4241C25.7432 47.0379 21.9913 45.1436 19.2788 42.1178C16.5662 39.092 15.0915 35.1562 15.1479 31.0929C15.2043 27.0296 16.7877 23.1363 19.5832 20.187C22.3787 17.2376 26.1817 15.4482 30.2361 15.1744C34.2906 14.9006 38.2996 16.1625 41.4662 18.7093C44.6329 21.256 46.7252 24.9011 47.3274 28.9199C47.9296 32.9387 46.9974 37.037 44.7163 40.4L51.8015 47.4957Z" fill="#4632DA"/>
</svg>
