<svg width="63" height="63" viewBox="0 0 63 63" fill="none" xmlns="http://www.w3.org/2000/svg">
<path d="M56.8199 38.5392C56.7443 39.6196 56.3345 40.653 55.6456 41.4881C54.974 42.2987 54.0618 42.8745 53.0412 43.1322L44.8025 44.4918L44.5676 44.7267C44.4614 44.8383 44.3812 44.9719 44.3328 45.1182L43.0279 52.6914C42.7751 53.7477 42.1859 54.6932 41.349 55.3856C40.5121 56.078 39.473 56.4797 38.388 56.5301H38.1531C37.1771 56.5301 36.222 56.2405 35.413 55.6951C34.5316 55.1197 33.8562 54.2789 33.4845 53.2942L26.2114 32.6623C25.887 31.7708 25.8253 30.8049 26.0334 29.8793C26.2416 28.9537 26.7109 28.1072 27.3857 27.4404C28.0459 26.7541 28.8993 26.2921 29.8362 26.1095C30.764 25.897 31.7337 25.9605 32.6259 26.2921L53.4822 33.5496C54.5365 33.9019 55.4499 34.5778 56.0918 35.4807C56.6529 36.3967 56.9061 37.4667 56.8199 38.5392Z" fill="#4632DA"/>
<path d="M24.2828 58.0465C24.0923 58.0729 23.8991 58.0729 23.7086 58.0465C19.224 56.636 15.1791 54.0922 11.9652 50.6612C8.747 47.2273 6.46839 43.0218 5.34935 38.4505C4.23031 33.8793 4.30865 29.0968 5.5768 24.5647C6.84281 20.0336 9.25411 15.9048 12.5785 12.5759C15.9015 9.25231 20.0256 6.84203 24.5522 5.57801C29.0789 4.314 33.8551 4.239 38.4192 5.36025C42.9833 6.48489 47.18 8.76796 50.6037 11.9888C54.0282 15.2147 56.5644 19.2679 57.9681 23.7583C58.0895 24.127 58.0974 24.5236 57.9909 24.8968C57.8844 25.27 57.6683 25.6027 57.3706 25.8518C57.0729 26.1008 56.7073 26.2548 56.3211 26.2938C55.935 26.3328 55.546 26.255 55.2045 26.0704C54.7468 25.8313 54.4004 25.4231 54.2389 24.9326C53.0538 21.0597 50.8872 17.559 47.9497 14.7706C45.0146 11.9857 41.4091 10.0072 37.4834 9.02724C33.5578 8.04731 29.4454 8.09931 25.5458 9.17817C21.6461 10.2617 18.0926 12.3347 15.2299 15.196C12.3644 18.0601 10.2876 21.6159 9.20076 25.5188C8.11393 29.4216 8.05399 33.5391 9.02676 37.472C9.99343 41.4045 11.9616 45.0199 14.7397 47.9664C17.5179 50.9128 21.0114 53.0899 24.8804 54.286C25.1393 54.368 25.3789 54.5017 25.5847 54.679C25.7906 54.8562 25.9583 55.0734 26.0778 55.3173C26.1973 55.5612 26.2662 55.8269 26.2801 56.0981C26.2941 56.3694 26.2529 56.6407 26.1591 56.8956C25.9973 57.2534 25.7315 57.5543 25.3964 57.759C25.0613 57.9638 24.6724 58.063 24.2802 58.0438" fill="#4632DA"/>
</svg>
