<svg width="63" height="63" viewBox="0 0 63 63" fill="none" xmlns="http://www.w3.org/2000/svg">
<path d="M36.5012 30.3372C36.5976 30.3372 36.6918 30.3088 36.7721 30.2555C36.8525 30.2022 36.9152 30.1264 36.9526 30.0375C36.99 29.9487 37.0003 29.8508 36.9822 29.7561C36.9641 29.6614 36.9185 29.5742 36.851 29.5053L27.2606 19.7534C27.1924 19.6842 27.1052 19.6368 27.01 19.6174C26.9149 19.5979 26.8161 19.6072 26.7262 19.644C26.6363 19.6809 26.5595 19.7437 26.5054 19.8244C26.4514 19.9051 26.4225 20 26.4226 20.0971V28.8692C26.4226 29.2585 26.5773 29.6319 26.8526 29.9072C27.1278 30.1825 27.5012 30.3372 27.8905 30.3372H36.5012Z" fill="#4632DA"/>
<path d="M24.0986 32.6616C23.5962 32.1659 23.1969 31.5755 22.924 30.9246C22.651 30.2737 22.5098 29.5752 22.5083 28.8694V17.6153H13.7008C11.6263 17.6214 9.63853 18.4482 8.17165 19.9151C6.70476 21.382 5.87796 23.3698 5.87183 25.4442V52.8456C5.87183 54.9219 6.69666 56.9132 8.16487 58.3815C9.63308 59.8497 11.6244 60.6745 13.7008 60.6745H31.3159C33.3923 60.6745 35.3836 59.8497 36.8518 58.3815C38.32 56.9132 39.1449 54.9219 39.1449 52.8456V34.2518H27.8907C27.1849 34.2509 26.4862 34.1098 25.8352 33.8368C25.1843 33.5639 24.594 33.1644 24.0986 32.6616ZM45.5059 14.6794H54.1165C54.2129 14.6795 54.3072 14.6511 54.3875 14.5978C54.4678 14.5445 54.5306 14.4687 54.568 14.3798C54.6053 14.291 54.6156 14.1931 54.5975 14.0984C54.5795 14.0037 54.5338 13.9165 54.4663 13.8476L44.8759 4.09568C44.8077 4.02648 44.7205 3.97912 44.6254 3.95965C44.5302 3.94017 44.4314 3.94945 44.3415 3.98632C44.2517 4.02318 44.1748 4.08595 44.1208 4.16664C44.0667 4.24734 44.0379 4.34229 44.0379 4.43942V13.2115C44.0379 13.6008 44.1926 13.9742 44.4679 14.2495C44.7432 14.5248 45.1166 14.6794 45.5059 14.6794Z" fill="#4632DA"/>
<path d="M45.5057 18.5935C44.0815 18.5827 42.7188 18.0121 41.7117 17.0051C40.7047 15.998 40.1341 14.6353 40.1233 13.2111V1.95703H26.9119C24.966 1.9593 23.1005 2.73331 21.7245 4.10926C20.3485 5.48522 19.5745 7.35077 19.5723 9.29667V13.7005H24.7247C25.3824 13.703 26.033 13.8355 26.6393 14.0904C27.2456 14.3452 27.7955 14.7174 28.2575 15.1855L41.6108 28.7638C42.5424 29.709 43.0626 30.9842 43.0579 32.3113V48.9307H49.5473C53.5242 48.9307 56.7585 45.6377 56.7585 41.5911V18.5935H45.5057Z" fill="#4632DA"/>
</svg>
