<svg width="183" height="183" viewBox="0 0 183 183" fill="none" xmlns="http://www.w3.org/2000/svg">
<g filter="url(#filter0_d_2167_2752)">
<g filter="url(#filter1_d_2167_2752)">
<circle cx="91.5" cy="87.5" r="79.5" fill="#F5F8FE"/>
<circle cx="91.5" cy="87.5" r="79" stroke="#989898"/>
</g>
<path d="M116.82 94.5392C116.744 95.6196 116.335 96.653 115.646 97.4881C114.974 98.2987 114.062 98.8745 113.041 99.1322L104.802 100.492L104.568 100.727C104.461 100.838 104.381 100.972 104.333 101.118L103.028 108.691C102.775 109.748 102.186 110.693 101.349 111.386C100.512 112.078 99.473 112.48 98.388 112.53H98.1531C97.1771 112.53 96.222 112.24 95.413 111.695C94.5316 111.12 93.8562 110.279 93.4845 109.294L86.2114 88.6623C85.887 87.7708 85.8253 86.8049 86.0334 85.8793C86.2416 84.9537 86.7109 84.1072 87.3857 83.4404C88.0459 82.7541 88.8993 82.2921 89.8362 82.1095C90.764 81.897 91.7337 81.9605 92.6259 82.2921L113.482 89.5496C114.536 89.9019 115.45 90.5778 116.092 91.4807C116.653 92.3967 116.906 93.4667 116.82 94.5392Z" fill="#4632DA"/>
<path d="M84.2828 114.046C84.0923 114.073 83.8991 114.073 83.7086 114.046C79.224 112.636 75.1791 110.092 71.9652 106.661C68.747 103.227 66.4684 99.0218 65.3493 94.4505C64.2303 89.8793 64.3087 85.0968 65.5768 80.5647C66.8428 76.0336 69.2541 71.9048 72.5785 68.5759C75.9015 65.2523 80.0256 62.842 84.5522 61.578C89.0789 60.314 93.8551 60.239 98.4192 61.3603C102.983 62.4849 107.18 64.768 110.604 67.9888C114.028 71.2147 116.564 75.2679 117.968 79.7583C118.089 80.127 118.097 80.5236 117.991 80.8968C117.884 81.27 117.668 81.6027 117.371 81.8518C117.073 82.1008 116.707 82.2548 116.321 82.2938C115.935 82.3328 115.546 82.255 115.204 82.0704C114.747 81.8313 114.4 81.4231 114.239 80.9326C113.054 77.0597 110.887 73.559 107.95 70.7706C105.015 67.9857 101.409 66.0072 97.4834 65.0272C93.5578 64.0473 89.4454 64.0993 85.5458 65.1782C81.6461 66.2617 78.0926 68.3347 75.2299 71.196C72.3644 74.0601 70.2876 77.6159 69.2008 81.5188C68.1139 85.4216 68.054 89.5391 69.0268 93.472C69.9934 97.4045 71.9616 101.02 74.7397 103.966C77.5179 106.913 81.0114 109.09 84.8804 110.286C85.1393 110.368 85.3789 110.502 85.5847 110.679C85.7906 110.856 85.9583 111.073 86.0778 111.317C86.1973 111.561 86.2662 111.827 86.2801 112.098C86.2941 112.369 86.2529 112.641 86.1591 112.896C85.9973 113.253 85.7315 113.554 85.3964 113.759C85.0613 113.964 84.6724 114.063 84.2802 114.044" fill="#4632DA"/>
</g>
<defs>
<filter id="filter0_d_2167_2752" x="0" y="0" width="183" height="183" filterUnits="userSpaceOnUse" color-interpolation-filters="sRGB">
<feFlood flood-opacity="0" result="BackgroundImageFix"/>
<feColorMatrix in="SourceAlpha" type="matrix" values="0 0 0 0 0 0 0 0 0 0 0 0 0 0 0 0 0 0 127 0" result="hardAlpha"/>
<feOffset dy="4"/>
<feGaussianBlur stdDeviation="6"/>
<feComposite in2="hardAlpha" operator="out"/>
<feColorMatrix type="matrix" values="0 0 0 0 0 0 0 0 0 0 0 0 0 0 0 0 0 0 0.25 0"/>
<feBlend mode="normal" in2="BackgroundImageFix" result="effect1_dropShadow_2167_2752"/>
<feBlend mode="normal" in="SourceGraphic" in2="effect1_dropShadow_2167_2752" result="shape"/>
</filter>
<filter id="filter1_d_2167_2752" x="0" y="0" width="183" height="183" filterUnits="userSpaceOnUse" color-interpolation-filters="sRGB">
<feFlood flood-opacity="0" result="BackgroundImageFix"/>
<feColorMatrix in="SourceAlpha" type="matrix" values="0 0 0 0 0 0 0 0 0 0 0 0 0 0 0 0 0 0 127 0" result="hardAlpha"/>
<feOffset dy="4"/>
<feGaussianBlur stdDeviation="6"/>
<feComposite in2="hardAlpha" operator="out"/>
<feColorMatrix type="matrix" values="0 0 0 0 0 0 0 0 0 0 0 0 0 0 0 0 0 0 0.25 0"/>
<feBlend mode="normal" in2="BackgroundImageFix" result="effect1_dropShadow_2167_2752"/>
<feBlend mode="normal" in="SourceGraphic" in2="effect1_dropShadow_2167_2752" result="shape"/>
</filter>
</defs>
</svg>
