<svg width="183" height="183" viewBox="0 0 183 183" fill="none" xmlns="http://www.w3.org/2000/svg">
<g filter="url(#filter0_d_2167_2746)">
<g filter="url(#filter1_d_2167_2746)">
<circle cx="91.5" cy="87.5" r="79.5" fill="#F5F8FE"/>
<circle cx="91.5" cy="87.5" r="79" stroke="#989898"/>
</g>
<path d="M96.5012 86.3372C96.5976 86.3372 96.6918 86.3088 96.7721 86.2555C96.8525 86.2022 96.9152 86.1264 96.9526 86.0375C96.99 85.9487 97.0003 85.8508 96.9822 85.7561C96.9641 85.6614 96.9185 85.5742 96.851 85.5053L87.2606 75.7534C87.1924 75.6842 87.1052 75.6368 87.01 75.6174C86.9149 75.5979 86.8161 75.6072 86.7262 75.644C86.6363 75.6809 86.5595 75.7437 86.5054 75.8244C86.4514 75.9051 86.4225 76 86.4226 76.0971V84.8692C86.4226 85.2585 86.5773 85.6319 86.8526 85.9072C87.1278 86.1825 87.5012 86.3372 87.8905 86.3372H96.5012Z" fill="#4632DA"/>
<path d="M84.0986 88.6616C83.5962 88.1659 83.1969 87.5755 82.924 86.9246C82.651 86.2737 82.5098 85.5752 82.5083 84.8694V73.6153H73.7008C71.6263 73.6214 69.6385 74.4482 68.1716 75.9151C66.7048 77.382 65.878 79.3698 65.8718 81.4442V108.846C65.8718 110.922 66.6967 112.913 68.1649 114.381C69.6331 115.85 71.6244 116.675 73.7008 116.675H91.3159C93.3923 116.675 95.3836 115.85 96.8518 114.381C98.32 112.913 99.1449 110.922 99.1449 108.846V90.2518H87.8907C87.1849 90.2509 86.4862 90.1098 85.8352 89.8368C85.1843 89.5639 84.594 89.1644 84.0986 88.6616ZM105.506 70.6794H114.116C114.213 70.6795 114.307 70.6511 114.387 70.5978C114.468 70.5445 114.531 70.4687 114.568 70.3798C114.605 70.291 114.616 70.1931 114.598 70.0984C114.579 70.0037 114.534 69.9165 114.466 69.8476L104.876 60.0957C104.808 60.0265 104.721 59.9791 104.625 59.9596C104.53 59.9402 104.431 59.9495 104.342 59.9863C104.252 60.0232 104.175 60.086 104.121 60.1666C104.067 60.2473 104.038 60.3423 104.038 60.4394V69.2115C104.038 69.6008 104.193 69.9742 104.468 70.2495C104.743 70.5248 105.117 70.6794 105.506 70.6794Z" fill="#4632DA"/>
<path d="M105.506 74.5935C104.082 74.5827 102.719 74.0121 101.712 73.0051C100.705 71.998 100.134 70.6353 100.123 69.2111V57.957H86.9119C84.966 57.9593 83.1005 58.7333 81.7245 60.1093C80.3485 61.4852 79.5745 63.3508 79.5723 65.2967V69.7005H84.7247C85.3824 69.703 86.033 69.8355 86.6393 70.0904C87.2456 70.3452 87.7955 70.7174 88.2575 71.1855L101.611 84.7638C102.542 85.709 103.063 86.9842 103.058 88.3113V104.931H109.547C113.524 104.931 116.759 101.638 116.759 97.5911V74.5935H105.506Z" fill="#4632DA"/>
</g>
<defs>
<filter id="filter0_d_2167_2746" x="0" y="0" width="183" height="183" filterUnits="userSpaceOnUse" color-interpolation-filters="sRGB">
<feFlood flood-opacity="0" result="BackgroundImageFix"/>
<feColorMatrix in="SourceAlpha" type="matrix" values="0 0 0 0 0 0 0 0 0 0 0 0 0 0 0 0 0 0 127 0" result="hardAlpha"/>
<feOffset dy="4"/>
<feGaussianBlur stdDeviation="6"/>
<feComposite in2="hardAlpha" operator="out"/>
<feColorMatrix type="matrix" values="0 0 0 0 0 0 0 0 0 0 0 0 0 0 0 0 0 0 0.25 0"/>
<feBlend mode="normal" in2="BackgroundImageFix" result="effect1_dropShadow_2167_2746"/>
<feBlend mode="normal" in="SourceGraphic" in2="effect1_dropShadow_2167_2746" result="shape"/>
</filter>
<filter id="filter1_d_2167_2746" x="0" y="0" width="183" height="183" filterUnits="userSpaceOnUse" color-interpolation-filters="sRGB">
<feFlood flood-opacity="0" result="BackgroundImageFix"/>
<feColorMatrix in="SourceAlpha" type="matrix" values="0 0 0 0 0 0 0 0 0 0 0 0 0 0 0 0 0 0 127 0" result="hardAlpha"/>
<feOffset dy="4"/>
<feGaussianBlur stdDeviation="6"/>
<feComposite in2="hardAlpha" operator="out"/>
<feColorMatrix type="matrix" values="0 0 0 0 0 0 0 0 0 0 0 0 0 0 0 0 0 0 0.25 0"/>
<feBlend mode="normal" in2="BackgroundImageFix" result="effect1_dropShadow_2167_2746"/>
<feBlend mode="normal" in="SourceGraphic" in2="effect1_dropShadow_2167_2746" result="shape"/>
</filter>
</defs>
</svg>
